<svg width="94" height="31" viewBox="0 0 94 31" fill="none" xmlns="http://www.w3.org/2000/svg">
<path fill-rule="evenodd" clip-rule="evenodd" d="M63.9585 28.5C63.9858 28.3374 64 28.1704 64 28C64 27.8296 63.9858 27.6626 63.9585 27.5H88V28.5H63.9585ZM58.0415 28.5H8V27.5H58.0415C58.0142 27.6626 58 27.8296 58 28C58 28.1704 58.0142 28.3374 58.0415 28.5ZM58.0415 28.5H63.9585C63.7205 29.9189 62.4865 31 61 31C59.5135 31 58.2795 29.9189 58.0415 28.5ZM58.0415 27.5C58.2795 26.0811 59.5135 25 61 25C62.4865 25 63.7205 26.0811 63.9585 27.5H58.0415Z" fill="#FF5E3A"/>
<path d="M9.6875 14.3906C9.54688 15.5938 9.10156 16.5234 8.35156 17.1797C7.60677 17.8307 6.61458 18.1562 5.375 18.1562C4.03125 18.1562 2.95312 17.6745 2.14062 16.7109C1.33333 15.7474 0.929688 14.4583 0.929688 12.8438V11.75C0.929688 10.6927 1.11719 9.76302 1.49219 8.96094C1.8724 8.15885 2.40885 7.54427 3.10156 7.11719C3.79427 6.6849 4.59635 6.46875 5.50781 6.46875C6.71615 6.46875 7.6849 6.80729 8.41406 7.48438C9.14323 8.15625 9.56771 9.08854 9.6875 10.2812H8.17969C8.04948 9.375 7.76562 8.71875 7.32812 8.3125C6.89583 7.90625 6.28906 7.70312 5.50781 7.70312C4.54948 7.70312 3.79688 8.05729 3.25 8.76562C2.70833 9.47396 2.4375 10.4818 2.4375 11.7891V12.8906C2.4375 14.125 2.69531 15.1068 3.21094 15.8359C3.72656 16.5651 4.44792 16.9297 5.375 16.9297C6.20833 16.9297 6.84635 16.7422 7.28906 16.3672C7.73698 15.987 8.03385 15.3281 8.17969 14.3906H9.6875ZM18.0234 15.0312H13.2578L12.1875 18H10.6406L14.9844 6.625H16.2969L20.6484 18H19.1094L18.0234 15.0312ZM13.7109 13.7969H17.5781L15.6406 8.47656L13.7109 13.7969ZM29.0234 7.85938H25.3672V18H23.875V7.85938H20.2266V6.625H29.0234V7.85938ZM37.1406 12.7422H32.2109V16.7734H37.9375V18H30.7109V6.625H37.8594V7.85938H32.2109V11.5156H37.1406V12.7422ZM48.2031 16.5078C47.8177 17.0599 47.2786 17.474 46.5859 17.75C45.8984 18.0208 45.0964 18.1562 44.1797 18.1562C43.2526 18.1562 42.4297 17.9401 41.7109 17.5078C40.9922 17.0703 40.4349 16.4505 40.0391 15.6484C39.6484 14.8464 39.4479 13.9167 39.4375 12.8594V11.8672C39.4375 10.1536 39.8359 8.82552 40.6328 7.88281C41.4349 6.9401 42.5599 6.46875 44.0078 6.46875C45.1953 6.46875 46.151 6.77344 46.875 7.38281C47.599 7.98698 48.0417 8.84635 48.2031 9.96094H46.7031C46.4219 8.45573 45.526 7.70312 44.0156 7.70312C43.0104 7.70312 42.2474 8.05729 41.7266 8.76562C41.2109 9.46875 40.9505 10.4896 40.9453 11.8281V12.7578C40.9453 14.0339 41.237 15.0495 41.8203 15.8047C42.4036 16.5547 43.1927 16.9297 44.1875 16.9297C44.75 16.9297 45.2422 16.8672 45.6641 16.7422C46.0859 16.6172 46.4349 16.4062 46.7109 16.1094V13.5547H44.0781V12.3359H48.2031V16.5078ZM59.4609 12.6797C59.4609 13.7943 59.2734 14.7682 58.8984 15.6016C58.5234 16.4297 57.9922 17.0625 57.3047 17.5C56.6172 17.9375 55.8151 18.1562 54.8984 18.1562C54.0026 18.1562 53.2083 17.9375 52.5156 17.5C51.8229 17.0573 51.2839 16.4297 50.8984 15.6172C50.5182 14.7995 50.3229 13.8542 50.3125 12.7812V11.9609C50.3125 10.8672 50.5026 9.90104 50.8828 9.0625C51.263 8.22396 51.7995 7.58333 52.4922 7.14062C53.1901 6.69271 53.987 6.46875 54.8828 6.46875C55.7943 6.46875 56.5964 6.6901 57.2891 7.13281C57.987 7.57031 58.5234 8.20833 58.8984 9.04688C59.2734 9.88021 59.4609 10.8516 59.4609 11.9609V12.6797ZM57.9688 11.9453C57.9688 10.5964 57.6979 9.5625 57.1562 8.84375C56.6146 8.11979 55.8568 7.75781 54.8828 7.75781C53.9349 7.75781 53.1875 8.11979 52.6406 8.84375C52.099 9.5625 51.8203 10.5625 51.8047 11.8438V12.6797C51.8047 13.987 52.0781 15.0156 52.625 15.7656C53.1771 16.5104 53.9349 16.8828 54.8984 16.8828C55.8672 16.8828 56.6172 16.5312 57.1484 15.8281C57.6797 15.1198 57.9531 14.1068 57.9688 12.7891V11.9453ZM65.8828 13.3984H63.2109V18H61.7031V6.625H65.4688C66.75 6.625 67.7344 6.91667 68.4219 7.5C69.1146 8.08333 69.4609 8.93229 69.4609 10.0469C69.4609 10.7552 69.2682 11.3724 68.8828 11.8984C68.5026 12.4245 67.9714 12.8177 67.2891 13.0781L69.9609 17.9062V18H68.3516L65.8828 13.3984ZM63.2109 12.1719H65.5156C66.2604 12.1719 66.8516 11.9792 67.2891 11.5938C67.7318 11.2083 67.9531 10.6927 67.9531 10.0469C67.9531 9.34375 67.7422 8.80469 67.3203 8.42969C66.9036 8.05469 66.2995 7.86458 65.5078 7.85938H63.2109V12.1719ZM73.1797 18H71.6797V6.625H73.1797V18ZM82.3594 12.7422H77.4297V16.7734H83.1562V18H75.9297V6.625H83.0781V7.85938H77.4297V11.5156H82.3594V12.7422ZM88.375 12.9297C87.0885 12.5599 86.151 12.1068 85.5625 11.5703C84.9792 11.0286 84.6875 10.362 84.6875 9.57031C84.6875 8.67448 85.0443 7.9349 85.7578 7.35156C86.4766 6.76302 87.4089 6.46875 88.5547 6.46875C89.3359 6.46875 90.0312 6.61979 90.6406 6.92188C91.2552 7.22396 91.7292 7.64062 92.0625 8.17188C92.401 8.70312 92.5703 9.28385 92.5703 9.91406H91.0625C91.0625 9.22656 90.8438 8.6875 90.4062 8.29688C89.9688 7.90104 89.3516 7.70312 88.5547 7.70312C87.8151 7.70312 87.237 7.86719 86.8203 8.19531C86.4089 8.51823 86.2031 8.96875 86.2031 9.54688C86.2031 10.0104 86.3984 10.4036 86.7891 10.7266C87.1849 11.0443 87.8542 11.3359 88.7969 11.6016C89.7448 11.8672 90.4844 12.1615 91.0156 12.4844C91.5521 12.8021 91.9479 13.1745 92.2031 13.6016C92.4635 14.0286 92.5938 14.5312 92.5938 15.1094C92.5938 16.0312 92.2344 16.7708 91.5156 17.3281C90.7969 17.8802 89.8359 18.1562 88.6328 18.1562C87.8516 18.1562 87.1224 18.0078 86.4453 17.7109C85.7682 17.4089 85.2448 16.9974 84.875 16.4766C84.5104 15.9557 84.3281 15.3646 84.3281 14.7031H85.8359C85.8359 15.3906 86.0885 15.9349 86.5938 16.3359C87.1042 16.7318 87.7839 16.9297 88.6328 16.9297C89.4245 16.9297 90.0312 16.7682 90.4531 16.4453C90.875 16.1224 91.0859 15.6823 91.0859 15.125C91.0859 14.5677 90.8906 14.138 90.5 13.8359C90.1094 13.5286 89.401 13.2266 88.375 12.9297Z" fill="black"/>
</svg>
