<svg width="82" height="31" viewBox="0 0 82 31" fill="none" xmlns="http://www.w3.org/2000/svg">
<path fill-rule="evenodd" clip-rule="evenodd" d="M56.9585 28.5C56.9858 28.3374 57 28.1704 57 28C57 27.8296 56.9858 27.6626 56.9585 27.5H81V28.5H56.9585ZM51.0415 28.5H1V27.5H51.0415C51.0142 27.6626 51 27.8296 51 28C51 28.1704 51.0142 28.3374 51.0415 28.5ZM51.0415 28.5H56.9585C56.7205 29.9189 55.4865 31 54 31C52.5135 31 51.2795 29.9189 51.0415 28.5ZM51.0415 27.5C51.2795 26.0811 52.5135 25 54 25C55.4865 25 56.7205 26.0811 56.9585 27.5H51.0415Z" fill="#FF5E3A"/>
<path d="M10.0625 18H8.55469L2.82812 9.23438V18H1.32031V6.625H2.82812L8.57031 15.4297V6.625H10.0625V18ZM16.0078 18.1562C14.862 18.1562 13.9297 17.7812 13.2109 17.0312C12.4922 16.276 12.1328 15.2682 12.1328 14.0078V13.7422C12.1328 12.9036 12.2917 12.1562 12.6094 11.5C12.9323 10.8385 13.3802 10.3229 13.9531 9.95312C14.5312 9.57812 15.1562 9.39062 15.8281 9.39062C16.9271 9.39062 17.7812 9.7526 18.3906 10.4766C19 11.2005 19.3047 12.237 19.3047 13.5859V14.1875H13.5781C13.599 15.0208 13.8411 15.6953 14.3047 16.2109C14.7734 16.7214 15.3672 16.9766 16.0859 16.9766C16.5964 16.9766 17.0286 16.8724 17.3828 16.6641C17.737 16.4557 18.0469 16.1797 18.3125 15.8359L19.1953 16.5234C18.487 17.612 17.4245 18.1562 16.0078 18.1562ZM15.8281 10.5781C15.2448 10.5781 14.7552 10.7917 14.3594 11.2188C13.9635 11.6406 13.7188 12.2344 13.625 13H17.8594V12.8906C17.8177 12.1562 17.6198 11.5885 17.2656 11.1875C16.9115 10.7812 16.4323 10.5781 15.8281 10.5781ZM28.4688 16.0078L30.0938 9.54688H31.5391L29.0781 18H27.9062L25.8516 11.5938L23.8516 18H22.6797L20.2266 9.54688H21.6641L23.3281 15.875L25.2969 9.54688H26.4609L28.4688 16.0078ZM43.4922 15.0312H38.7266L37.6562 18H36.1094L40.4531 6.625H41.7656L46.1172 18H44.5781L43.4922 15.0312ZM39.1797 13.7969H43.0469L41.1094 8.47656L39.1797 13.7969ZM51.5078 10.8438C51.2891 10.8073 51.0521 10.7891 50.7969 10.7891C49.849 10.7891 49.2057 11.1927 48.8672 12V18H47.4219V9.54688H48.8281L48.8516 10.5234C49.3255 9.76823 49.9974 9.39062 50.8672 9.39062C51.1484 9.39062 51.362 9.42708 51.5078 9.5V10.8438ZM56.9297 10.8438C56.7109 10.8073 56.474 10.7891 56.2188 10.7891C55.2708 10.7891 54.6276 11.1927 54.2891 12V18H52.8438V9.54688H54.25L54.2734 10.5234C54.7474 9.76823 55.4193 9.39062 56.2891 9.39062C56.5703 9.39062 56.7839 9.42708 56.9297 9.5V10.8438ZM59.8359 18H58.3906V9.54688H59.8359V18ZM58.2734 7.30469C58.2734 7.07031 58.3438 6.8724 58.4844 6.71094C58.6302 6.54948 58.8438 6.46875 59.125 6.46875C59.4062 6.46875 59.6198 6.54948 59.7656 6.71094C59.9115 6.8724 59.9844 7.07031 59.9844 7.30469C59.9844 7.53906 59.9115 7.73438 59.7656 7.89062C59.6198 8.04688 59.4062 8.125 59.125 8.125C58.8438 8.125 58.6302 8.04688 58.4844 7.89062C58.3438 7.73438 58.2734 7.53906 58.2734 7.30469ZM64.9453 16.0391L67.0391 9.54688H68.5156L65.4844 18H64.3828L61.3203 9.54688H62.7969L64.9453 16.0391ZM75 18C74.9167 17.8333 74.849 17.5365 74.7969 17.1094C74.125 17.8073 73.3229 18.1562 72.3906 18.1562C71.5573 18.1562 70.8724 17.9219 70.3359 17.4531C69.8047 16.9792 69.5391 16.3802 69.5391 15.6562C69.5391 14.776 69.8724 14.0938 70.5391 13.6094C71.2109 13.1198 72.1536 12.875 73.3672 12.875H74.7734V12.2109C74.7734 11.7057 74.6224 11.3047 74.3203 11.0078C74.0182 10.7057 73.5729 10.5547 72.9844 10.5547C72.4688 10.5547 72.0365 10.6849 71.6875 10.9453C71.3385 11.2057 71.1641 11.5208 71.1641 11.8906H69.7109C69.7109 11.4688 69.8594 11.0625 70.1562 10.6719C70.4583 10.276 70.8646 9.96354 71.375 9.73438C71.8906 9.50521 72.4557 9.39062 73.0703 9.39062C74.0443 9.39062 74.8073 9.63542 75.3594 10.125C75.9115 10.6094 76.1979 11.2786 76.2188 12.1328V16.0234C76.2188 16.7995 76.3177 17.4167 76.5156 17.875V18H75ZM72.6016 16.8984C73.0547 16.8984 73.4844 16.7812 73.8906 16.5469C74.2969 16.3125 74.5911 16.0078 74.7734 15.6328V13.8984H73.6406C71.8698 13.8984 70.9844 14.4167 70.9844 15.4531C70.9844 15.9062 71.1354 16.2604 71.4375 16.5156C71.7396 16.7708 72.1276 16.8984 72.6016 16.8984ZM80.0547 18H78.6094V6H80.0547V18Z" fill="black"/>
</svg>
