<svg width="95" height="31" viewBox="0 0 95 31" fill="none" xmlns="http://www.w3.org/2000/svg">
<path fill-rule="evenodd" clip-rule="evenodd" d="M63.9585 28.5C63.9858 28.3374 64 28.1704 64 28C64 27.8296 63.9858 27.6626 63.9585 27.5H88V28.5H63.9585ZM58.0415 28.5H8V27.5H58.0415C58.0142 27.6626 58 27.8296 58 28C58 28.1704 58.0142 28.3374 58.0415 28.5ZM58.0415 28.5H63.9585C63.7205 29.9189 62.4865 31 61 31C59.5135 31 58.2795 29.9189 58.0415 28.5ZM58.0415 27.5C58.2795 26.0811 59.5135 25 61 25C62.4865 25 63.7205 26.0811 63.9585 27.5H58.0415Z" fill="#FF5E3A"/>
<path d="M9.6875 14.3906C9.54688 15.5938 9.10156 16.5234 8.35156 17.1797C7.60677 17.8307 6.61458 18.1562 5.375 18.1562C4.03125 18.1562 2.95312 17.6745 2.14062 16.7109C1.33333 15.7474 0.929688 14.4583 0.929688 12.8438V11.75C0.929688 10.6927 1.11719 9.76302 1.49219 8.96094C1.8724 8.15885 2.40885 7.54427 3.10156 7.11719C3.79427 6.6849 4.59635 6.46875 5.50781 6.46875C6.71615 6.46875 7.6849 6.80729 8.41406 7.48438C9.14323 8.15625 9.56771 9.08854 9.6875 10.2812H8.17969C8.04948 9.375 7.76562 8.71875 7.32812 8.3125C6.89583 7.90625 6.28906 7.70312 5.50781 7.70312C4.54948 7.70312 3.79688 8.05729 3.25 8.76562C2.70833 9.47396 2.4375 10.4818 2.4375 11.7891V12.8906C2.4375 14.125 2.69531 15.1068 3.21094 15.8359C3.72656 16.5651 4.44792 16.9297 5.375 16.9297C6.20833 16.9297 6.84635 16.7422 7.28906 16.3672C7.73698 15.987 8.03385 15.3281 8.17969 14.3906H9.6875ZM20.4922 12.6797C20.4922 13.7943 20.3047 14.7682 19.9297 15.6016C19.5547 16.4297 19.0234 17.0625 18.3359 17.5C17.6484 17.9375 16.8464 18.1562 15.9297 18.1562C15.0339 18.1562 14.2396 17.9375 13.5469 17.5C12.8542 17.0573 12.3151 16.4297 11.9297 15.6172C11.5495 14.7995 11.3542 13.8542 11.3438 12.7812V11.9609C11.3438 10.8672 11.5339 9.90104 11.9141 9.0625C12.2943 8.22396 12.8307 7.58333 13.5234 7.14062C14.2214 6.69271 15.0182 6.46875 15.9141 6.46875C16.8255 6.46875 17.6276 6.6901 18.3203 7.13281C19.0182 7.57031 19.5547 8.20833 19.9297 9.04688C20.3047 9.88021 20.4922 10.8516 20.4922 11.9609V12.6797ZM19 11.9453C19 10.5964 18.7292 9.5625 18.1875 8.84375C17.6458 8.11979 16.888 7.75781 15.9141 7.75781C14.9661 7.75781 14.2188 8.11979 13.6719 8.84375C13.1302 9.5625 12.8516 10.5625 12.8359 11.8438V12.6797C12.8359 13.987 13.1094 15.0156 13.6562 15.7656C14.2083 16.5104 14.9661 16.8828 15.9297 16.8828C16.8984 16.8828 17.6484 16.5312 18.1797 15.8281C18.7109 15.1198 18.9844 14.1068 19 12.7891V11.9453ZM24.25 16.7734H29.6406V18H22.7422V6.625H24.25V16.7734ZM32.8594 16.7734H38.25V18H31.3516V6.625H32.8594V16.7734ZM46.3906 12.7422H41.4609V16.7734H47.1875V18H39.9609V6.625H47.1094V7.85938H41.4609V11.5156H46.3906V12.7422ZM57.4219 14.3906C57.2812 15.5938 56.8359 16.5234 56.0859 17.1797C55.3411 17.8307 54.349 18.1562 53.1094 18.1562C51.7656 18.1562 50.6875 17.6745 49.875 16.7109C49.0677 15.7474 48.6641 14.4583 48.6641 12.8438V11.75C48.6641 10.6927 48.8516 9.76302 49.2266 8.96094C49.6068 8.15885 50.1432 7.54427 50.8359 7.11719C51.5286 6.6849 52.3307 6.46875 53.2422 6.46875C54.4505 6.46875 55.4193 6.80729 56.1484 7.48438C56.8776 8.15625 57.3021 9.08854 57.4219 10.2812H55.9141C55.7839 9.375 55.5 8.71875 55.0625 8.3125C54.6302 7.90625 54.0234 7.70312 53.2422 7.70312C52.2839 7.70312 51.5312 8.05729 50.9844 8.76562C50.4427 9.47396 50.1719 10.4818 50.1719 11.7891V12.8906C50.1719 14.125 50.4297 15.1068 50.9453 15.8359C51.4609 16.5651 52.1823 16.9297 53.1094 16.9297C53.9427 16.9297 54.5807 16.7422 55.0234 16.3672C55.4714 15.987 55.7682 15.3281 55.9141 14.3906H57.4219ZM67.1016 7.85938H63.4453V18H61.9531V7.85938H58.3047V6.625H67.1016V7.85938ZM70.3984 18H68.8984V6.625H70.3984V18ZM81.8984 12.6797C81.8984 13.7943 81.7109 14.7682 81.3359 15.6016C80.9609 16.4297 80.4297 17.0625 79.7422 17.5C79.0547 17.9375 78.2526 18.1562 77.3359 18.1562C76.4401 18.1562 75.6458 17.9375 74.9531 17.5C74.2604 17.0573 73.7214 16.4297 73.3359 15.6172C72.9557 14.7995 72.7604 13.8542 72.75 12.7812V11.9609C72.75 10.8672 72.9401 9.90104 73.3203 9.0625C73.7005 8.22396 74.237 7.58333 74.9297 7.14062C75.6276 6.69271 76.4245 6.46875 77.3203 6.46875C78.2318 6.46875 79.0339 6.6901 79.7266 7.13281C80.4245 7.57031 80.9609 8.20833 81.3359 9.04688C81.7109 9.88021 81.8984 10.8516 81.8984 11.9609V12.6797ZM80.4062 11.9453C80.4062 10.5964 80.1354 9.5625 79.5938 8.84375C79.0521 8.11979 78.2943 7.75781 77.3203 7.75781C76.3724 7.75781 75.625 8.11979 75.0781 8.84375C74.5365 9.5625 74.2578 10.5625 74.2422 11.8438V12.6797C74.2422 13.987 74.5156 15.0156 75.0625 15.7656C75.6146 16.5104 76.3724 16.8828 77.3359 16.8828C78.3047 16.8828 79.0547 16.5312 79.5859 15.8281C80.1172 15.1198 80.3906 14.1068 80.4062 12.7891V11.9453ZM92.8906 18H91.3828L85.6562 9.23438V18H84.1484V6.625H85.6562L91.3984 15.4297V6.625H92.8906V18Z" fill="black"/>
</svg>
