<svg width="279" height="57" viewBox="0 0 279 57" fill="none" xmlns="http://www.w3.org/2000/svg">
<g filter="url(#filter0_d_3013_52)">
<circle cx="27.9999" cy="15.2199" r="9.99994" fill="#FF5E3A"/>
</g>
<path d="M26.1042 14.0533C26.1042 13.0063 26.953 12.1575 28 12.1575C29.047 12.1575 29.8958 13.0063 29.8958 14.0533C29.8958 15.1003 29.047 15.9491 28 15.9491C26.953 15.9491 26.1042 15.1003 26.1042 14.0533Z" fill="white"/>
<path fill-rule="evenodd" clip-rule="evenodd" d="M23.2012 13.3984C23.4017 10.9666 25.4339 9.09497 27.874 9.09497H28.126C30.5661 9.09497 32.5983 10.9666 32.7988 13.3984C32.9067 14.7078 32.5023 16.0079 31.6706 17.025L28.8747 20.4444C28.4226 20.9972 27.5774 20.9972 27.1253 20.4444L24.3294 17.025C23.4978 16.0079 23.0933 14.7078 23.2012 13.3984ZM28 11.2825C26.4697 11.2825 25.2292 12.523 25.2292 14.0533C25.2292 15.5836 26.4697 16.8241 28 16.8241C29.5303 16.8241 30.7708 15.5836 30.7708 14.0533C30.7708 12.523 29.5303 11.2825 28 11.2825Z" fill="white"/>
<path d="M52.416 20.4241C52.3093 20.4241 52.2187 20.3921 52.144 20.3281C52.08 20.2534 52.048 20.1627 52.048 20.0561V11.0961L49.392 13.1441C49.3067 13.2081 49.216 13.2347 49.12 13.2241C49.024 13.2134 48.944 13.1654 48.88 13.0801L48.464 12.5521C48.4 12.4561 48.3733 12.3601 48.384 12.2641C48.4053 12.1681 48.4587 12.0881 48.544 12.0241L52.032 9.33607C52.1067 9.28274 52.176 9.25074 52.24 9.24007C52.304 9.2294 52.3733 9.22407 52.448 9.22407H53.264C53.3707 9.22407 53.456 9.2614 53.52 9.33607C53.584 9.40007 53.616 9.4854 53.616 9.59207V20.0561C53.616 20.1627 53.584 20.2534 53.52 20.3281C53.456 20.3921 53.3707 20.4241 53.264 20.4241H52.416ZM55.9958 20.4241C55.8891 20.4241 55.7984 20.3921 55.7238 20.3281C55.6598 20.2534 55.6278 20.1627 55.6278 20.0561V19.5441C55.6278 19.4481 55.6544 19.3414 55.7078 19.2241C55.7611 19.1067 55.8678 18.9787 56.0278 18.8401L59.4198 15.4481C59.9638 14.9894 60.3904 14.6001 60.6998 14.2801C61.0198 13.9494 61.2438 13.6347 61.3718 13.3361C61.5104 13.0374 61.5798 12.7281 61.5798 12.4081C61.5798 11.8001 61.4091 11.3201 61.0678 10.9681C60.7264 10.6054 60.2198 10.4241 59.5477 10.4241C59.1211 10.4241 58.7531 10.5147 58.4438 10.6961C58.1344 10.8667 57.8891 11.1067 57.7078 11.4161C57.5371 11.7147 57.4251 12.0561 57.3718 12.4401C57.3504 12.5787 57.2918 12.6747 57.1957 12.7281C57.1104 12.7814 57.0304 12.8081 56.9557 12.8081H56.1238C56.0278 12.8081 55.9478 12.7814 55.8838 12.7281C55.8198 12.6641 55.7878 12.5894 55.7878 12.5041C55.7984 12.0987 55.8838 11.6934 56.0438 11.2881C56.2038 10.8721 56.4384 10.4987 56.7478 10.1681C57.0678 9.8374 57.4571 9.57074 57.9158 9.36807C58.3851 9.15474 58.9291 9.04807 59.5477 9.04807C60.3904 9.04807 61.0784 9.20274 61.6118 9.51207C62.1558 9.81074 62.5558 10.2107 62.8118 10.7121C63.0678 11.2134 63.1958 11.7627 63.1958 12.3601C63.1958 12.8294 63.1158 13.2614 62.9558 13.6561C62.7958 14.0401 62.5611 14.4187 62.2518 14.7921C61.9531 15.1547 61.5798 15.5281 61.1318 15.9121L58.0598 19.0321H63.0518C63.1691 19.0321 63.2598 19.0641 63.3238 19.1281C63.3984 19.1921 63.4358 19.2827 63.4358 19.4001V20.0561C63.4358 20.1627 63.3984 20.2534 63.3238 20.3281C63.2598 20.3921 63.1691 20.4241 63.0518 20.4241H55.9958ZM69.0024 20.5841C68.3304 20.5841 67.7437 20.5041 67.2424 20.3441C66.741 20.1734 66.3197 19.9494 65.9784 19.6721C65.637 19.3947 65.3757 19.0907 65.1944 18.7601C65.0237 18.4294 64.933 18.0881 64.9224 17.7361C64.9224 17.6401 64.9544 17.5654 65.0184 17.5121C65.0824 17.4587 65.1624 17.4321 65.2584 17.4321H66.0424C66.1384 17.4321 66.2237 17.4534 66.2984 17.4961C66.373 17.5387 66.437 17.6294 66.4904 17.7681C66.597 18.1521 66.7784 18.4507 67.0344 18.6641C67.301 18.8774 67.605 19.0267 67.9464 19.1121C68.2984 19.1867 68.6504 19.2241 69.0024 19.2241C69.7384 19.2241 70.3357 19.0481 70.7944 18.6961C71.253 18.3441 71.4824 17.8267 71.4824 17.1441C71.4824 16.4507 71.2744 15.9547 70.8584 15.6561C70.4424 15.3574 69.8664 15.2081 69.1304 15.2081H67.6104C67.5037 15.2081 67.413 15.1761 67.3384 15.1121C67.2744 15.0481 67.2424 14.9574 67.2424 14.8401V14.4081C67.2424 14.3121 67.2584 14.2321 67.2904 14.1681C67.333 14.0934 67.3757 14.0294 67.4184 13.9761L70.5224 10.5841H65.8024C65.6957 10.5841 65.605 10.5521 65.5304 10.4881C65.4664 10.4241 65.4344 10.3334 65.4344 10.2161V9.60807C65.4344 9.49074 65.4664 9.40007 65.5304 9.33607C65.605 9.2614 65.6957 9.22407 65.8024 9.22407H72.1864C72.3037 9.22407 72.3944 9.2614 72.4584 9.33607C72.533 9.40007 72.5704 9.49074 72.5704 9.60807V10.1841C72.5704 10.2587 72.549 10.3281 72.5064 10.3921C72.4744 10.4454 72.437 10.4987 72.3944 10.5521L69.3064 13.9921L69.5624 14.0081C70.2664 14.0294 70.8797 14.1574 71.4024 14.3921C71.9357 14.6267 72.3464 14.9787 72.6344 15.4481C72.933 15.9067 73.0824 16.4881 73.0824 17.1921C73.0824 17.9067 72.9064 18.5201 72.5544 19.0321C72.2024 19.5334 71.717 19.9174 71.0984 20.1841C70.4797 20.4507 69.781 20.5841 69.0024 20.5841ZM82.7576 20.5841C81.8296 20.5841 81.051 20.4454 80.4216 20.1681C79.7923 19.8801 79.307 19.5121 78.9656 19.0641C78.635 18.6054 78.459 18.1201 78.4376 17.6081C78.4376 17.5227 78.4696 17.4481 78.5336 17.3841C78.6083 17.3094 78.6936 17.2721 78.7896 17.2721H79.6056C79.7336 17.2721 79.8296 17.3041 79.8936 17.3681C79.9576 17.4321 80.0003 17.5067 80.0216 17.5921C80.075 17.8481 80.203 18.1041 80.4056 18.3601C80.619 18.6054 80.9123 18.8134 81.2856 18.9841C81.6696 19.1441 82.1603 19.2241 82.7576 19.2241C83.675 19.2241 84.347 19.0641 84.7736 18.7441C85.211 18.4134 85.4296 17.9761 85.4296 17.4321C85.4296 17.0587 85.3123 16.7601 85.0776 16.5361C84.8536 16.3014 84.507 16.0934 84.0376 15.9121C83.5683 15.7307 82.9603 15.5334 82.2136 15.3201C81.435 15.0961 80.7896 14.8507 80.2776 14.5841C79.7656 14.3174 79.3816 13.9867 79.1256 13.5921C78.8803 13.1974 78.7576 12.6961 78.7576 12.0881C78.7576 11.5121 78.9123 11.0001 79.2216 10.5521C79.531 10.0934 79.9736 9.73074 80.5496 9.46407C81.1363 9.1974 81.8456 9.06407 82.6776 9.06407C83.339 9.06407 83.915 9.15474 84.4056 9.33607C84.907 9.50674 85.323 9.7414 85.6536 10.0401C85.9843 10.3281 86.235 10.6427 86.4056 10.9841C86.5763 11.3147 86.667 11.6401 86.6776 11.9601C86.6776 12.0347 86.651 12.1094 86.5976 12.1841C86.5443 12.2481 86.459 12.2801 86.3416 12.2801H85.4936C85.419 12.2801 85.339 12.2587 85.2536 12.2161C85.179 12.1734 85.1203 12.0934 85.0776 11.9761C85.0136 11.5387 84.7683 11.1707 84.3416 10.8721C83.915 10.5734 83.3603 10.4241 82.6776 10.4241C81.9843 10.4241 81.419 10.5574 80.9816 10.8241C80.555 11.0907 80.3416 11.5067 80.3416 12.0721C80.3416 12.4347 80.443 12.7387 80.6456 12.9841C80.8483 13.2187 81.1683 13.4267 81.6056 13.6081C82.043 13.7894 82.6136 13.9814 83.3176 14.1841C84.171 14.4187 84.8696 14.6694 85.4136 14.9361C85.9576 15.1921 86.3576 15.5174 86.6136 15.9121C86.8803 16.2961 87.0136 16.7921 87.0136 17.4001C87.0136 18.0721 86.8376 18.6481 86.4856 19.1281C86.1336 19.5974 85.6376 19.9601 84.9976 20.2161C84.3683 20.4614 83.6216 20.5841 82.7576 20.5841ZM92.1508 20.4241C91.5534 20.4241 91.0681 20.3121 90.6948 20.0881C90.3214 19.8534 90.0494 19.5281 89.8788 19.1121C89.7081 18.6854 89.6228 18.1841 89.6228 17.6081V13.3841H88.3748C88.2681 13.3841 88.1774 13.3521 88.1028 13.2881C88.0388 13.2134 88.0068 13.1227 88.0068 13.0161V12.4721C88.0068 12.3654 88.0388 12.2801 88.1028 12.2161C88.1774 12.1414 88.2681 12.1041 88.3748 12.1041H89.6228V9.43207C89.6228 9.32541 89.6548 9.24007 89.7188 9.17607C89.7934 9.10141 89.8841 9.06407 89.9908 9.06407H90.7428C90.8494 9.06407 90.9348 9.10141 90.9988 9.17607C91.0734 9.24007 91.1108 9.32541 91.1108 9.43207V12.1041H93.0948C93.2014 12.1041 93.2868 12.1414 93.3508 12.2161C93.4254 12.2801 93.4628 12.3654 93.4628 12.4721V13.0161C93.4628 13.1227 93.4254 13.2134 93.3508 13.2881C93.2868 13.3521 93.2014 13.3841 93.0948 13.3841H91.1108V17.4961C91.1108 17.9974 91.1961 18.3921 91.3668 18.6801C91.5374 18.9681 91.8414 19.1121 92.2788 19.1121H93.2548C93.3614 19.1121 93.4468 19.1494 93.5108 19.2241C93.5854 19.2881 93.6228 19.3734 93.6228 19.4801V20.0561C93.6228 20.1627 93.5854 20.2534 93.5108 20.3281C93.4468 20.3921 93.3614 20.4241 93.2548 20.4241H92.1508ZM95.5208 20.4241C95.4141 20.4241 95.3234 20.3921 95.2488 20.3281C95.1848 20.2534 95.1528 20.1627 95.1528 20.0561V12.4881C95.1528 12.3814 95.1848 12.2907 95.2488 12.2161C95.3234 12.1414 95.4141 12.1041 95.5208 12.1041H96.2568C96.3634 12.1041 96.4541 12.1414 96.5288 12.2161C96.6034 12.2907 96.6408 12.3814 96.6408 12.4881V13.1921C96.8541 12.8294 97.1474 12.5574 97.5208 12.3761C97.8941 12.1947 98.3421 12.1041 98.8648 12.1041H99.5048C99.6114 12.1041 99.6968 12.1414 99.7608 12.2161C99.8248 12.2801 99.8568 12.3654 99.8568 12.4721V13.1281C99.8568 13.2347 99.8248 13.3201 99.7608 13.3841C99.6968 13.4481 99.6114 13.4801 99.5048 13.4801H98.5448C97.9688 13.4801 97.5154 13.6507 97.1848 13.9921C96.8541 14.3227 96.6888 14.7761 96.6888 15.3521V20.0561C96.6888 20.1627 96.6514 20.2534 96.5768 20.3281C96.5021 20.3921 96.4114 20.4241 96.3048 20.4241H95.5208ZM104.387 20.5841C103.288 20.5841 102.413 20.2481 101.763 19.5761C101.112 18.8934 100.755 17.9654 100.691 16.7921C100.68 16.6534 100.675 16.4774 100.675 16.2641C100.675 16.0401 100.68 15.8587 100.691 15.7201C100.733 14.9627 100.909 14.3014 101.219 13.7361C101.528 13.1601 101.949 12.7174 102.483 12.4081C103.027 12.0987 103.661 11.9441 104.387 11.9441C105.197 11.9441 105.875 12.1147 106.419 12.4561C106.973 12.7974 107.395 13.2827 107.683 13.9121C107.971 14.5414 108.115 15.2774 108.115 16.1201V16.3921C108.115 16.5094 108.077 16.6001 108.003 16.6641C107.939 16.7281 107.853 16.7601 107.747 16.7601H102.211C102.211 16.7707 102.211 16.7921 102.211 16.8241C102.211 16.8561 102.211 16.8827 102.211 16.9041C102.232 17.3414 102.328 17.7521 102.499 18.1361C102.669 18.5094 102.915 18.8134 103.235 19.0481C103.555 19.2827 103.939 19.4001 104.387 19.4001C104.771 19.4001 105.091 19.3414 105.347 19.2241C105.603 19.1067 105.811 18.9787 105.971 18.8401C106.131 18.6907 106.237 18.5787 106.291 18.5041C106.387 18.3654 106.461 18.2854 106.515 18.2641C106.568 18.2321 106.653 18.2161 106.771 18.2161H107.539C107.645 18.2161 107.731 18.2481 107.795 18.3121C107.869 18.3654 107.901 18.4454 107.891 18.5521C107.88 18.7121 107.795 18.9094 107.635 19.1441C107.475 19.3681 107.245 19.5921 106.947 19.8161C106.648 20.0401 106.285 20.2267 105.859 20.3761C105.432 20.5147 104.941 20.5841 104.387 20.5841ZM102.211 15.6561H106.595V15.6081C106.595 15.1281 106.504 14.7014 106.323 14.3281C106.152 13.9547 105.901 13.6614 105.571 13.4481C105.24 13.2241 104.845 13.1121 104.387 13.1121C103.928 13.1121 103.533 13.2241 103.203 13.4481C102.883 13.6614 102.637 13.9547 102.467 14.3281C102.296 14.7014 102.211 15.1281 102.211 15.6081V15.6561ZM113.34 20.5841C112.241 20.5841 111.366 20.2481 110.716 19.5761C110.065 18.8934 109.708 17.9654 109.644 16.7921C109.633 16.6534 109.628 16.4774 109.628 16.2641C109.628 16.0401 109.633 15.8587 109.644 15.7201C109.686 14.9627 109.862 14.3014 110.172 13.7361C110.481 13.1601 110.902 12.7174 111.436 12.4081C111.98 12.0987 112.614 11.9441 113.34 11.9441C114.15 11.9441 114.828 12.1147 115.372 12.4561C115.926 12.7974 116.348 13.2827 116.636 13.9121C116.924 14.5414 117.068 15.2774 117.068 16.1201V16.3921C117.068 16.5094 117.03 16.6001 116.956 16.6641C116.892 16.7281 116.806 16.7601 116.7 16.7601H111.164C111.164 16.7707 111.164 16.7921 111.164 16.8241C111.164 16.8561 111.164 16.8827 111.164 16.9041C111.185 17.3414 111.281 17.7521 111.452 18.1361C111.622 18.5094 111.868 18.8134 112.188 19.0481C112.508 19.2827 112.892 19.4001 113.34 19.4001C113.724 19.4001 114.044 19.3414 114.3 19.2241C114.556 19.1067 114.764 18.9787 114.924 18.8401C115.084 18.6907 115.19 18.5787 115.244 18.5041C115.34 18.3654 115.414 18.2854 115.468 18.2641C115.521 18.2321 115.606 18.2161 115.724 18.2161H116.492C116.598 18.2161 116.684 18.2481 116.748 18.3121C116.822 18.3654 116.854 18.4454 116.844 18.5521C116.833 18.7121 116.748 18.9094 116.588 19.1441C116.428 19.3681 116.198 19.5921 115.9 19.8161C115.601 20.0401 115.238 20.2267 114.812 20.3761C114.385 20.5147 113.894 20.5841 113.34 20.5841ZM111.164 15.6561H115.548V15.6081C115.548 15.1281 115.457 14.7014 115.276 14.3281C115.105 13.9547 114.854 13.6614 114.524 13.4481C114.193 13.2241 113.798 13.1121 113.34 13.1121C112.881 13.1121 112.486 13.2241 112.156 13.4481C111.836 13.6614 111.59 13.9547 111.42 14.3281C111.249 14.7014 111.164 15.1281 111.164 15.6081V15.6561ZM122.182 20.4241C121.585 20.4241 121.099 20.3121 120.726 20.0881C120.353 19.8534 120.081 19.5281 119.91 19.1121C119.739 18.6854 119.654 18.1841 119.654 17.6081V13.3841H118.406C118.299 13.3841 118.209 13.3521 118.134 13.2881C118.07 13.2134 118.038 13.1227 118.038 13.0161V12.4721C118.038 12.3654 118.07 12.2801 118.134 12.2161C118.209 12.1414 118.299 12.1041 118.406 12.1041H119.654V9.43207C119.654 9.32541 119.686 9.24007 119.75 9.17607C119.825 9.10141 119.915 9.06407 120.022 9.06407H120.774C120.881 9.06407 120.966 9.10141 121.03 9.17607C121.105 9.24007 121.142 9.32541 121.142 9.43207V12.1041H123.126C123.233 12.1041 123.318 12.1414 123.382 12.2161C123.457 12.2801 123.494 12.3654 123.494 12.4721V13.0161C123.494 13.1227 123.457 13.2134 123.382 13.2881C123.318 13.3521 123.233 13.3841 123.126 13.3841H121.142V17.4961C121.142 17.9974 121.227 18.3921 121.398 18.6801C121.569 18.9681 121.873 19.1121 122.31 19.1121H123.286C123.393 19.1121 123.478 19.1494 123.542 19.2241C123.617 19.2881 123.654 19.3734 123.654 19.4801V20.0561C123.654 20.1627 123.617 20.2534 123.542 20.3281C123.478 20.3921 123.393 20.4241 123.286 20.4241H122.182ZM131.724 20.4241C131.617 20.4241 131.526 20.3921 131.452 20.3281C131.388 20.2534 131.356 20.1627 131.356 20.0561V10.6481H128.284C128.177 10.6481 128.086 10.6161 128.012 10.5521C127.948 10.4774 127.916 10.3867 127.916 10.2801V9.60807C127.916 9.49074 127.948 9.40007 128.012 9.33607C128.086 9.2614 128.177 9.22407 128.284 9.22407H135.996C136.113 9.22407 136.204 9.2614 136.268 9.33607C136.342 9.40007 136.38 9.49074 136.38 9.60807V10.2801C136.38 10.3867 136.342 10.4774 136.268 10.5521C136.204 10.6161 136.113 10.6481 135.996 10.6481H132.94V20.0561C132.94 20.1627 132.902 20.2534 132.828 20.3281C132.764 20.3921 132.673 20.4241 132.556 20.4241H131.724ZM137.036 20.4241C136.93 20.4241 136.839 20.3921 136.764 20.3281C136.7 20.2534 136.668 20.1627 136.668 20.0561V12.4881C136.668 12.3814 136.7 12.2907 136.764 12.2161C136.839 12.1414 136.93 12.1041 137.036 12.1041H137.772C137.879 12.1041 137.97 12.1414 138.044 12.2161C138.119 12.2907 138.156 12.3814 138.156 12.4881V13.1921C138.37 12.8294 138.663 12.5574 139.036 12.3761C139.41 12.1947 139.858 12.1041 140.38 12.1041H141.02C141.127 12.1041 141.212 12.1414 141.276 12.2161C141.34 12.2801 141.372 12.3654 141.372 12.4721V13.1281C141.372 13.2347 141.34 13.3201 141.276 13.3841C141.212 13.4481 141.127 13.4801 141.02 13.4801H140.06C139.484 13.4801 139.031 13.6507 138.7 13.9921C138.37 14.3227 138.204 14.7761 138.204 15.3521V20.0561C138.204 20.1627 138.167 20.2534 138.092 20.3281C138.018 20.3921 137.927 20.4241 137.82 20.4241H137.036ZM144.942 20.5841C144.408 20.5841 143.923 20.4774 143.486 20.2641C143.048 20.0507 142.696 19.7627 142.43 19.4001C142.163 19.0374 142.03 18.6267 142.03 18.1681C142.03 17.4321 142.328 16.8454 142.926 16.4081C143.523 15.9707 144.302 15.6827 145.262 15.5441L147.646 15.2081V14.7441C147.646 14.2321 147.496 13.8321 147.198 13.5441C146.91 13.2561 146.435 13.1121 145.774 13.1121C145.294 13.1121 144.904 13.2081 144.606 13.4001C144.318 13.5921 144.115 13.8374 143.998 14.1361C143.934 14.2961 143.822 14.3761 143.662 14.3761H142.942C142.824 14.3761 142.734 14.3441 142.67 14.2801C142.616 14.2054 142.59 14.1201 142.59 14.0241C142.59 13.8641 142.648 13.6667 142.766 13.4321C142.894 13.1974 143.086 12.9681 143.342 12.7441C143.598 12.5201 143.923 12.3334 144.318 12.1841C144.723 12.0241 145.214 11.9441 145.79 11.9441C146.43 11.9441 146.968 12.0294 147.406 12.2001C147.843 12.3601 148.184 12.5787 148.43 12.8561C148.686 13.1334 148.867 13.4481 148.974 13.8001C149.091 14.1521 149.15 14.5094 149.15 14.8721V20.0561C149.15 20.1627 149.112 20.2534 149.038 20.3281C148.974 20.3921 148.888 20.4241 148.782 20.4241H148.046C147.928 20.4241 147.838 20.3921 147.774 20.3281C147.71 20.2534 147.678 20.1627 147.678 20.0561V19.3681C147.539 19.5601 147.352 19.7521 147.118 19.9441C146.883 20.1254 146.59 20.2801 146.238 20.4081C145.886 20.5254 145.454 20.5841 144.942 20.5841ZM145.278 19.3841C145.715 19.3841 146.115 19.2934 146.478 19.1121C146.84 18.9201 147.123 18.6267 147.326 18.2321C147.539 17.8374 147.646 17.3414 147.646 16.7441V16.2961L145.79 16.5681C145.032 16.6747 144.462 16.8561 144.078 17.1121C143.694 17.3574 143.502 17.6721 143.502 18.0561C143.502 18.3547 143.587 18.6054 143.758 18.8081C143.939 19.0001 144.163 19.1441 144.43 19.2401C144.707 19.3361 144.99 19.3841 145.278 19.3841ZM152.572 20.4241C152.465 20.4241 152.374 20.3921 152.299 20.3281C152.236 20.2534 152.204 20.1627 152.204 20.0561V13.3841H150.844C150.737 13.3841 150.646 13.3521 150.572 13.2881C150.508 13.2134 150.476 13.1227 150.476 13.0161V12.4721C150.476 12.3654 150.508 12.2801 150.572 12.2161C150.646 12.1414 150.737 12.1041 150.844 12.1041H152.204V11.3041C152.204 10.7601 152.294 10.2854 152.476 9.88007C152.657 9.46407 152.945 9.14407 153.34 8.92007C153.745 8.69607 154.284 8.58407 154.956 8.58407H155.916C156.022 8.58407 156.108 8.62141 156.172 8.69607C156.236 8.76007 156.268 8.8454 156.268 8.95207V9.49607C156.268 9.60274 156.236 9.69341 156.172 9.76807C156.108 9.83207 156.022 9.86407 155.916 9.86407H154.988C154.486 9.86407 154.145 9.99741 153.964 10.2641C153.782 10.5201 153.692 10.8934 153.692 11.3841V12.1041H157.116V11.3041C157.116 10.7601 157.201 10.2854 157.372 9.88007C157.553 9.46407 157.841 9.14407 158.236 8.92007C158.641 8.69607 159.18 8.58407 159.852 8.58407H160.812C160.918 8.58407 161.004 8.62141 161.068 8.69607C161.142 8.76007 161.18 8.8454 161.18 8.95207V9.49607C161.18 9.60274 161.142 9.69341 161.068 9.76807C161.004 9.83207 160.918 9.86407 160.812 9.86407H159.884C159.382 9.86407 159.041 9.99741 158.86 10.2641C158.678 10.5201 158.588 10.8934 158.588 11.3841V12.1041H160.652C160.758 12.1041 160.844 12.1414 160.908 12.2161C160.982 12.2801 161.02 12.3654 161.02 12.4721V13.0161C161.02 13.1227 160.982 13.2134 160.908 13.2881C160.844 13.3521 160.758 13.3841 160.652 13.3841H158.588V20.0561C158.588 20.1627 158.556 20.2534 158.492 20.3281C158.428 20.3921 158.337 20.4241 158.22 20.4241H157.484C157.377 20.4241 157.286 20.3921 157.212 20.3281C157.148 20.2534 157.116 20.1627 157.116 20.0561V13.3841H153.692V20.0561C153.692 20.1627 153.654 20.2534 153.58 20.3281C153.516 20.3921 153.43 20.4241 153.324 20.4241H152.572ZM165.686 20.5841C164.875 20.5841 164.198 20.4294 163.654 20.1201C163.11 19.8107 162.694 19.3841 162.406 18.8401C162.118 18.2854 161.958 17.6561 161.926 16.9521C161.915 16.7707 161.91 16.5414 161.91 16.2641C161.91 15.9761 161.915 15.7467 161.926 15.5761C161.958 14.8614 162.118 14.2321 162.406 13.6881C162.704 13.1441 163.126 12.7174 163.67 12.4081C164.214 12.0987 164.886 11.9441 165.686 11.9441C166.486 11.9441 167.158 12.0987 167.702 12.4081C168.246 12.7174 168.662 13.1441 168.95 13.6881C169.248 14.2321 169.414 14.8614 169.446 15.5761C169.456 15.7467 169.462 15.9761 169.462 16.2641C169.462 16.5414 169.456 16.7707 169.446 16.9521C169.414 17.6561 169.254 18.2854 168.966 18.8401C168.678 19.3841 168.262 19.8107 167.718 20.1201C167.174 20.4294 166.496 20.5841 165.686 20.5841ZM165.686 19.3521C166.347 19.3521 166.875 19.1441 167.27 18.7281C167.664 18.3014 167.878 17.6827 167.91 16.8721C167.92 16.7121 167.926 16.5094 167.926 16.2641C167.926 16.0187 167.92 15.8161 167.91 15.6561C167.878 14.8454 167.664 14.2321 167.27 13.8161C166.875 13.3894 166.347 13.1761 165.686 13.1761C165.024 13.1761 164.491 13.3894 164.086 13.8161C163.691 14.2321 163.483 14.8454 163.462 15.6561C163.451 15.8161 163.446 16.0187 163.446 16.2641C163.446 16.5094 163.451 16.7121 163.462 16.8721C163.483 17.6827 163.691 18.3014 164.086 18.7281C164.491 19.1441 165.024 19.3521 165.686 19.3521ZM171.833 20.4241C171.727 20.4241 171.636 20.3921 171.561 20.3281C171.497 20.2534 171.465 20.1627 171.465 20.0561V12.4881C171.465 12.3814 171.497 12.2907 171.561 12.2161C171.636 12.1414 171.727 12.1041 171.833 12.1041H172.569C172.676 12.1041 172.767 12.1414 172.841 12.2161C172.916 12.2907 172.953 12.3814 172.953 12.4881V13.1921C173.167 12.8294 173.46 12.5574 173.833 12.3761C174.207 12.1947 174.655 12.1041 175.177 12.1041H175.817C175.924 12.1041 176.009 12.1414 176.073 12.2161C176.137 12.2801 176.169 12.3654 176.169 12.4721V13.1281C176.169 13.2347 176.137 13.3201 176.073 13.3841C176.009 13.4481 175.924 13.4801 175.817 13.4801H174.857C174.281 13.4801 173.828 13.6507 173.497 13.9921C173.167 14.3227 173.001 14.7761 173.001 15.3521V20.0561C173.001 20.1627 172.964 20.2534 172.889 20.3281C172.815 20.3921 172.724 20.4241 172.617 20.4241H171.833ZM180.411 20.5841C179.825 20.5841 179.318 20.4827 178.892 20.2801C178.465 20.0667 178.113 19.7841 177.836 19.4321C177.569 19.0694 177.366 18.6587 177.228 18.2001C177.1 17.7414 177.025 17.2561 177.004 16.7441C176.993 16.5734 176.988 16.4134 176.988 16.2641C176.988 16.1147 176.993 15.9547 177.004 15.7841C177.025 15.2827 177.1 14.8027 177.228 14.3441C177.366 13.8854 177.569 13.4747 177.836 13.1121C178.113 12.7494 178.465 12.4667 178.892 12.2641C179.318 12.0507 179.825 11.9441 180.411 11.9441C181.041 11.9441 181.564 12.0561 181.98 12.2801C182.396 12.5041 182.737 12.7814 183.004 13.1121V9.43207C183.004 9.32541 183.036 9.24007 183.1 9.17607C183.174 9.10141 183.265 9.06407 183.372 9.06407H184.14C184.246 9.06407 184.332 9.10141 184.396 9.17607C184.47 9.24007 184.508 9.32541 184.508 9.43207V20.0561C184.508 20.1627 184.47 20.2534 184.396 20.3281C184.332 20.3921 184.246 20.4241 184.14 20.4241H183.42C183.302 20.4241 183.212 20.3921 183.148 20.3281C183.084 20.2534 183.052 20.1627 183.052 20.0561V19.3841C182.785 19.7254 182.438 20.0134 182.012 20.2481C181.585 20.4721 181.052 20.5841 180.411 20.5841ZM180.748 19.2881C181.281 19.2881 181.708 19.1654 182.028 18.9201C182.348 18.6747 182.588 18.3654 182.748 17.9921C182.908 17.6081 182.993 17.2187 183.004 16.8241C183.014 16.6534 183.02 16.4507 183.02 16.2161C183.02 15.9707 183.014 15.7627 183.004 15.5921C182.993 15.2187 182.902 14.8507 182.732 14.4881C182.572 14.1254 182.326 13.8267 181.996 13.5921C181.676 13.3574 181.26 13.2401 180.748 13.2401C180.204 13.2401 179.772 13.3627 179.452 13.6081C179.132 13.8427 178.902 14.1574 178.764 14.5521C178.625 14.9361 178.545 15.3521 178.524 15.8001C178.513 16.1094 178.513 16.4187 178.524 16.7281C178.545 17.1761 178.625 17.5974 178.764 17.9921C178.902 18.3761 179.132 18.6907 179.452 18.9361C179.772 19.1707 180.204 19.2881 180.748 19.2881ZM186.775 21.6241C186.69 21.6241 186.62 21.5921 186.567 21.5281C186.524 21.4641 186.508 21.3841 186.519 21.2881L186.887 19.0001C186.908 18.8721 186.951 18.7654 187.015 18.6801C187.09 18.5841 187.196 18.5361 187.335 18.5361H188.407C188.482 18.5361 188.54 18.5627 188.583 18.6161C188.636 18.6694 188.663 18.7334 188.663 18.8081C188.663 18.8934 188.642 18.9787 188.599 19.0641L187.767 21.2561C187.724 21.3627 187.666 21.4481 187.591 21.5121C187.527 21.5867 187.431 21.6241 187.303 21.6241H186.775ZM195.369 20.4241C195.252 20.4241 195.161 20.3921 195.097 20.3281C195.033 20.2534 195.001 20.1627 195.001 20.0561V9.59207C195.001 9.4854 195.033 9.40007 195.097 9.33607C195.161 9.2614 195.252 9.22407 195.369 9.22407H196.217C196.324 9.22407 196.409 9.2614 196.473 9.33607C196.537 9.40007 196.569 9.4854 196.569 9.59207V19.0321H201.897C202.015 19.0321 202.105 19.0694 202.169 19.1441C202.233 19.2081 202.265 19.2987 202.265 19.4161V20.0561C202.265 20.1627 202.233 20.2534 202.169 20.3281C202.105 20.3921 202.015 20.4241 201.897 20.4241H195.369ZM207.045 20.5841C206.234 20.5841 205.557 20.4294 205.013 20.1201C204.469 19.8107 204.053 19.3841 203.765 18.8401C203.477 18.2854 203.317 17.6561 203.285 16.9521C203.274 16.7707 203.269 16.5414 203.269 16.2641C203.269 15.9761 203.274 15.7467 203.285 15.5761C203.317 14.8614 203.477 14.2321 203.765 13.6881C204.064 13.1441 204.485 12.7174 205.029 12.4081C205.573 12.0987 206.245 11.9441 207.045 11.9441C207.845 11.9441 208.517 12.0987 209.061 12.4081C209.605 12.7174 210.021 13.1441 210.309 13.6881C210.608 14.2321 210.773 14.8614 210.805 15.5761C210.816 15.7467 210.821 15.9761 210.821 16.2641C210.821 16.5414 210.816 16.7707 210.805 16.9521C210.773 17.6561 210.613 18.2854 210.325 18.8401C210.037 19.3841 209.621 19.8107 209.077 20.1201C208.533 20.4294 207.856 20.5841 207.045 20.5841ZM207.045 19.3521C207.706 19.3521 208.234 19.1441 208.629 18.7281C209.024 18.3014 209.237 17.6827 209.269 16.8721C209.28 16.7121 209.285 16.5094 209.285 16.2641C209.285 16.0187 209.28 15.8161 209.269 15.6561C209.237 14.8454 209.024 14.2321 208.629 13.8161C208.234 13.3894 207.706 13.1761 207.045 13.1761C206.384 13.1761 205.85 13.3894 205.445 13.8161C205.05 14.2321 204.842 14.8454 204.821 15.6561C204.81 15.8161 204.805 16.0187 204.805 16.2641C204.805 16.5094 204.81 16.7121 204.821 16.8721C204.842 17.6827 205.05 18.3014 205.445 18.7281C205.85 19.1441 206.384 19.3521 207.045 19.3521ZM213.193 20.4241C213.086 20.4241 212.995 20.3921 212.921 20.3281C212.857 20.2534 212.825 20.1627 212.825 20.0561V12.4721C212.825 12.3654 212.857 12.2801 212.921 12.2161C212.995 12.1414 213.086 12.1041 213.193 12.1041H213.945C214.051 12.1041 214.137 12.1414 214.201 12.2161C214.275 12.2801 214.313 12.3654 214.313 12.4721V13.1761C214.59 12.8134 214.937 12.5201 215.353 12.2961C215.779 12.0614 216.323 11.9441 216.985 11.9441C217.678 11.9441 218.265 12.0987 218.745 12.4081C219.235 12.7067 219.603 13.1281 219.849 13.6721C220.094 14.2054 220.217 14.8294 220.217 15.5441V20.0561C220.217 20.1627 220.185 20.2534 220.121 20.3281C220.057 20.3921 219.971 20.4241 219.865 20.4241H219.065C218.958 20.4241 218.867 20.3921 218.793 20.3281C218.729 20.2534 218.697 20.1627 218.697 20.0561V15.6241C218.697 14.8774 218.515 14.2961 218.153 13.8801C217.79 13.4534 217.257 13.2401 216.553 13.2401C215.891 13.2401 215.358 13.4534 214.953 13.8801C214.558 14.2961 214.361 14.8774 214.361 15.6241V20.0561C214.361 20.1627 214.323 20.2534 214.249 20.3281C214.185 20.3921 214.099 20.4241 213.993 20.4241H213.193ZM225.568 20.5841C224.981 20.5841 224.474 20.4827 224.048 20.2801C223.621 20.0667 223.269 19.7841 222.992 19.4321C222.725 19.0694 222.522 18.6587 222.384 18.2001C222.256 17.7414 222.181 17.2561 222.16 16.7441C222.149 16.5734 222.144 16.4134 222.144 16.2641C222.144 16.1147 222.149 15.9547 222.16 15.7841C222.181 15.2827 222.256 14.8027 222.384 14.3441C222.522 13.8854 222.725 13.4747 222.992 13.1121C223.269 12.7494 223.621 12.4667 224.048 12.2641C224.474 12.0507 224.981 11.9441 225.568 11.9441C226.197 11.9441 226.72 12.0561 227.136 12.2801C227.552 12.5041 227.893 12.7814 228.16 13.1121V9.43207C228.16 9.32541 228.192 9.24007 228.256 9.17607C228.33 9.10141 228.421 9.06407 228.528 9.06407H229.296C229.402 9.06407 229.488 9.10141 229.552 9.17607C229.626 9.24007 229.664 9.32541 229.664 9.43207V20.0561C229.664 20.1627 229.626 20.2534 229.552 20.3281C229.488 20.3921 229.402 20.4241 229.296 20.4241H228.576C228.458 20.4241 228.368 20.3921 228.304 20.3281C228.24 20.2534 228.208 20.1627 228.208 20.0561V19.3841C227.941 19.7254 227.594 20.0134 227.168 20.2481C226.741 20.4721 226.208 20.5841 225.568 20.5841ZM225.904 19.2881C226.437 19.2881 226.864 19.1654 227.184 18.9201C227.504 18.6747 227.744 18.3654 227.904 17.9921C228.064 17.6081 228.149 17.2187 228.16 16.8241C228.17 16.6534 228.176 16.4507 228.176 16.2161C228.176 15.9707 228.17 15.7627 228.16 15.5921C228.149 15.2187 228.058 14.8507 227.888 14.4881C227.728 14.1254 227.482 13.8267 227.152 13.5921C226.832 13.3574 226.416 13.2401 225.904 13.2401C225.36 13.2401 224.928 13.3627 224.608 13.6081C224.288 13.8427 224.058 14.1574 223.92 14.5521C223.781 14.9361 223.701 15.3521 223.68 15.8001C223.669 16.1094 223.669 16.4187 223.68 16.7281C223.701 17.1761 223.781 17.5974 223.92 17.9921C224.058 18.3761 224.288 18.6907 224.608 18.9361C224.928 19.1707 225.36 19.2881 225.904 19.2881ZM235.451 20.5841C234.641 20.5841 233.963 20.4294 233.419 20.1201C232.875 19.8107 232.459 19.3841 232.171 18.8401C231.883 18.2854 231.723 17.6561 231.691 16.9521C231.681 16.7707 231.675 16.5414 231.675 16.2641C231.675 15.9761 231.681 15.7467 231.691 15.5761C231.723 14.8614 231.883 14.2321 232.171 13.6881C232.47 13.1441 232.891 12.7174 233.435 12.4081C233.979 12.0987 234.651 11.9441 235.451 11.9441C236.251 11.9441 236.923 12.0987 237.467 12.4081C238.011 12.7174 238.427 13.1441 238.715 13.6881C239.014 14.2321 239.179 14.8614 239.211 15.5761C239.222 15.7467 239.227 15.9761 239.227 16.2641C239.227 16.5414 239.222 16.7707 239.211 16.9521C239.179 17.6561 239.019 18.2854 238.731 18.8401C238.443 19.3841 238.027 19.8107 237.483 20.1201C236.939 20.4294 236.262 20.5841 235.451 20.5841ZM235.451 19.3521C236.113 19.3521 236.641 19.1441 237.035 18.7281C237.43 18.3014 237.643 17.6827 237.675 16.8721C237.686 16.7121 237.691 16.5094 237.691 16.2641C237.691 16.0187 237.686 15.8161 237.675 15.6561C237.643 14.8454 237.43 14.2321 237.035 13.8161C236.641 13.3894 236.113 13.1761 235.451 13.1761C234.79 13.1761 234.257 13.3894 233.851 13.8161C233.457 14.2321 233.249 14.8454 233.227 15.6561C233.217 15.8161 233.211 16.0187 233.211 16.2641C233.211 16.5094 233.217 16.7121 233.227 16.8721C233.249 17.6827 233.457 18.3014 233.851 18.7281C234.257 19.1441 234.79 19.3521 235.451 19.3521ZM241.599 20.4241C241.492 20.4241 241.402 20.3921 241.327 20.3281C241.263 20.2534 241.231 20.1627 241.231 20.0561V12.4721C241.231 12.3654 241.263 12.2801 241.327 12.2161C241.402 12.1414 241.492 12.1041 241.599 12.1041H242.351C242.458 12.1041 242.543 12.1414 242.607 12.2161C242.682 12.2801 242.719 12.3654 242.719 12.4721V13.1761C242.996 12.8134 243.343 12.5201 243.759 12.2961C244.186 12.0614 244.73 11.9441 245.391 11.9441C246.084 11.9441 246.671 12.0987 247.151 12.4081C247.642 12.7067 248.01 13.1281 248.255 13.6721C248.5 14.2054 248.623 14.8294 248.623 15.5441V20.0561C248.623 20.1627 248.591 20.2534 248.527 20.3281C248.463 20.3921 248.378 20.4241 248.271 20.4241H247.471C247.364 20.4241 247.274 20.3921 247.199 20.3281C247.135 20.2534 247.103 20.1627 247.103 20.0561V15.6241C247.103 14.8774 246.922 14.2961 246.559 13.8801C246.196 13.4534 245.663 13.2401 244.959 13.2401C244.298 13.2401 243.764 13.4534 243.359 13.8801C242.964 14.2961 242.767 14.8774 242.767 15.6241V20.0561C242.767 20.1627 242.73 20.2534 242.655 20.3281C242.591 20.3921 242.506 20.4241 242.399 20.4241H241.599ZM250.822 21.6241C250.737 21.6241 250.667 21.5921 250.614 21.5281C250.571 21.4641 250.555 21.3841 250.566 21.2881L250.934 19.0001C250.955 18.8721 250.998 18.7654 251.062 18.6801C251.137 18.5841 251.243 18.5361 251.382 18.5361H252.454C252.529 18.5361 252.587 18.5627 252.63 18.6161C252.683 18.6694 252.71 18.7334 252.71 18.8081C252.71 18.8934 252.689 18.9787 252.646 19.0641L251.814 21.2561C251.771 21.3627 251.713 21.4481 251.638 21.5121C251.574 21.5867 251.478 21.6241 251.35 21.6241H250.822ZM263.272 20.5841C262.376 20.5841 261.603 20.4241 260.952 20.1041C260.312 19.7841 259.816 19.2987 259.464 18.6481C259.123 17.9867 258.952 17.1387 258.952 16.1041V9.60807C258.952 9.49074 258.984 9.40007 259.048 9.33607C259.112 9.2614 259.203 9.22407 259.32 9.22407H260.136C260.254 9.22407 260.344 9.2614 260.408 9.33607C260.483 9.40007 260.52 9.49074 260.52 9.60807V16.1361C260.52 17.1814 260.766 17.9547 261.256 18.4561C261.747 18.9574 262.419 19.2081 263.272 19.2081C264.115 19.2081 264.782 18.9574 265.272 18.4561C265.774 17.9547 266.024 17.1814 266.024 16.1361V9.60807C266.024 9.49074 266.056 9.40007 266.12 9.33607C266.195 9.2614 266.286 9.22407 266.392 9.22407H267.224C267.331 9.22407 267.416 9.2614 267.48 9.33607C267.555 9.40007 267.592 9.49074 267.592 9.60807V16.1041C267.592 17.1387 267.416 17.9867 267.064 18.6481C266.723 19.2987 266.232 19.7841 265.592 20.1041C264.952 20.4241 264.179 20.5841 263.272 20.5841ZM270.635 20.4241C270.518 20.4241 270.427 20.3921 270.363 20.3281C270.299 20.2534 270.267 20.1627 270.267 20.0561V9.60807C270.267 9.49074 270.299 9.40007 270.363 9.33607C270.427 9.2614 270.518 9.22407 270.635 9.22407H271.435C271.552 9.22407 271.643 9.2614 271.707 9.33607C271.782 9.40007 271.819 9.49074 271.819 9.60807V13.5761L276.091 9.48007C276.134 9.43741 276.203 9.38407 276.299 9.32007C276.406 9.25607 276.544 9.22407 276.715 9.22407H277.579C277.664 9.22407 277.739 9.25607 277.803 9.32007C277.867 9.38407 277.899 9.45874 277.899 9.54407C277.899 9.62941 277.878 9.69874 277.835 9.75207L272.891 14.5841L278.155 19.8801C278.208 19.9441 278.235 20.0187 278.235 20.1041C278.235 20.1894 278.203 20.2641 278.139 20.3281C278.075 20.3921 278 20.4241 277.915 20.4241H277.019C276.838 20.4241 276.699 20.3921 276.603 20.3281C276.507 20.2534 276.438 20.2001 276.395 20.1681L271.819 15.6561V20.0561C271.819 20.1627 271.782 20.2534 271.707 20.3281C271.643 20.3921 271.552 20.4241 271.435 20.4241H270.635Z" fill="black"/>
<defs>
<filter id="filter0_d_3013_52" x="0" y="0.219971" width="55.9999" height="55.9998" filterUnits="userSpaceOnUse" color-interpolation-filters="sRGB">
<feFlood flood-opacity="0" result="BackgroundImageFix"/>
<feColorMatrix in="SourceAlpha" type="matrix" values="0 0 0 0 0 0 0 0 0 0 0 0 0 0 0 0 0 0 127 0" result="hardAlpha"/>
<feOffset dy="13"/>
<feGaussianBlur stdDeviation="9"/>
<feColorMatrix type="matrix" values="0 0 0 0 0.0658854 0 0 0 0 0.0730469 0 0 0 0 0.1375 0 0 0 0.08 0"/>
<feBlend mode="normal" in2="BackgroundImageFix" result="effect1_dropShadow_3013_52"/>
<feBlend mode="normal" in="SourceGraphic" in2="effect1_dropShadow_3013_52" result="shape"/>
</filter>
</defs>
</svg>
