<svg width="195" height="56" viewBox="0 0 195 56" fill="none" xmlns="http://www.w3.org/2000/svg">
<g filter="url(#filter0_d_3013_59)">
<ellipse cx="28" cy="15.214" rx="10" ry="9.66" fill="#FF5E3A"/>
</g>
<path d="M25.252 11.2175C27.0806 11.0639 28.9194 11.0639 30.748 11.2175L31.629 11.2914C32.2154 11.3407 32.7177 11.6786 32.978 12.162C33.0113 12.2238 32.9863 12.2987 32.9249 12.3353L29.2698 14.5211C28.4859 14.9899 27.4974 14.9997 26.7037 14.5466L23.0241 12.4463C22.9647 12.4124 22.9374 12.3425 22.9642 12.281C23.2022 11.7347 23.7375 11.3446 24.371 11.2914L25.252 11.2175Z" fill="white"/>
<path d="M22.9612 13.3922C22.8702 13.3402 22.7541 13.3961 22.7435 13.4977C22.5955 14.9152 22.6313 16.3462 22.851 17.7573C22.9668 18.5012 23.5952 19.0714 24.371 19.1366L25.252 19.2106C27.0806 19.3641 28.9194 19.3641 30.748 19.2106L31.629 19.1366C32.4048 19.0714 33.0332 18.5012 33.149 17.7573C33.3751 16.3051 33.4065 14.8318 33.2431 13.3738C33.2316 13.2715 33.1136 13.2166 33.023 13.2708L29.7304 15.2398C28.6698 15.874 27.3324 15.8874 26.2585 15.2743L22.9612 13.3922Z" fill="white"/>
<path d="M49.552 20.7241C49.4453 20.7241 49.3547 20.6921 49.28 20.6281C49.216 20.5535 49.184 20.4628 49.184 20.3561V12.7721C49.184 12.6655 49.216 12.5801 49.28 12.5161C49.3547 12.4415 49.4453 12.4041 49.552 12.4041H50.32C50.4267 12.4041 50.512 12.4415 50.576 12.5161C50.64 12.5801 50.672 12.6655 50.672 12.7721V20.3561C50.672 20.4628 50.64 20.5535 50.576 20.6281C50.512 20.6921 50.4267 20.7241 50.32 20.7241H49.552ZM49.424 10.8521C49.3173 10.8521 49.2267 10.8201 49.152 10.7561C49.088 10.6815 49.056 10.5908 49.056 10.4841V9.62012C49.056 9.51345 49.088 9.42812 49.152 9.36412C49.2267 9.28945 49.3173 9.25212 49.424 9.25212H50.432C50.5387 9.25212 50.624 9.28945 50.688 9.36412C50.7627 9.42812 50.8 9.51345 50.8 9.62012V10.4841C50.8 10.5908 50.7627 10.6815 50.688 10.7561C50.624 10.8201 50.5387 10.8521 50.432 10.8521H49.424ZM53.5833 20.7241C53.4766 20.7241 53.3859 20.6921 53.3113 20.6281C53.2473 20.5535 53.2153 20.4628 53.2153 20.3561V12.7721C53.2153 12.6655 53.2473 12.5801 53.3113 12.5161C53.3859 12.4415 53.4766 12.4041 53.5833 12.4041H54.3353C54.4419 12.4041 54.5273 12.4415 54.5913 12.5161C54.6659 12.5801 54.7033 12.6655 54.7033 12.7721V13.4761C54.9806 13.1135 55.3273 12.8201 55.7433 12.5961C56.1699 12.3615 56.7139 12.2441 57.3753 12.2441C58.0686 12.2441 58.6553 12.3988 59.1353 12.7081C59.6259 13.0068 59.9939 13.4281 60.2393 13.9721C60.4846 14.5055 60.6073 15.1295 60.6073 15.8441V20.3561C60.6073 20.4628 60.5753 20.5535 60.5113 20.6281C60.4473 20.6921 60.3619 20.7241 60.2552 20.7241H59.4553C59.3486 20.7241 59.2579 20.6921 59.1833 20.6281C59.1193 20.5535 59.0873 20.4628 59.0873 20.3561V15.9241C59.0873 15.1775 58.9059 14.5961 58.5433 14.1801C58.1806 13.7535 57.6473 13.5401 56.9433 13.5401C56.2819 13.5401 55.7486 13.7535 55.3433 14.1801C54.9486 14.5961 54.7513 15.1775 54.7513 15.9241V20.3561C54.7513 20.4628 54.7139 20.5535 54.6393 20.6281C54.5753 20.6921 54.4899 20.7241 54.3832 20.7241H53.5833ZM63.9934 20.7241C63.8867 20.7241 63.796 20.6921 63.7214 20.6281C63.6574 20.5535 63.6254 20.4628 63.6254 20.3561V13.6841H62.2654C62.1587 13.6841 62.068 13.6521 61.9934 13.5881C61.9294 13.5135 61.8974 13.4228 61.8974 13.3161V12.7721C61.8974 12.6655 61.9294 12.5801 61.9934 12.5161C62.068 12.4415 62.1587 12.4041 62.2654 12.4041H63.6254V11.6041C63.6254 11.0601 63.716 10.5855 63.8974 10.1801C64.0787 9.76412 64.3667 9.44412 64.7614 9.22012C65.1667 8.99612 65.7054 8.88412 66.3774 8.88412H67.3374C67.444 8.88412 67.5294 8.92145 67.5934 8.99612C67.6574 9.06012 67.6894 9.14545 67.6894 9.25212V9.79612C67.6894 9.90279 67.6574 9.99345 67.5934 10.0681C67.5294 10.1321 67.444 10.1641 67.3374 10.1641H66.4094C65.908 10.1641 65.5667 10.2975 65.3854 10.5641C65.204 10.8201 65.1134 11.1935 65.1134 11.6841V12.4041H67.1774C67.284 12.4041 67.3694 12.4415 67.4334 12.5161C67.4974 12.5801 67.5294 12.6655 67.5294 12.7721V13.3161C67.5294 13.4228 67.4974 13.5135 67.4334 13.5881C67.3694 13.6521 67.284 13.6841 67.1774 13.6841H65.1134V20.3561C65.1134 20.4628 65.076 20.5535 65.0014 20.6281C64.9374 20.6921 64.852 20.7241 64.7454 20.7241H63.9934ZM72.2014 20.8841C71.3907 20.8841 70.7134 20.7295 70.1694 20.4201C69.6254 20.1108 69.2094 19.6841 68.9214 19.1401C68.6334 18.5855 68.4734 17.9561 68.4414 17.2521C68.4307 17.0708 68.4254 16.8415 68.4254 16.5641C68.4254 16.2761 68.4307 16.0468 68.4414 15.8761C68.4734 15.1615 68.6334 14.5321 68.9214 13.9881C69.22 13.4441 69.6414 13.0175 70.1854 12.7081C70.7294 12.3988 71.4014 12.2441 72.2014 12.2441C73.0014 12.2441 73.6734 12.3988 74.2174 12.7081C74.7614 13.0175 75.1774 13.4441 75.4654 13.9881C75.764 14.5321 75.9294 15.1615 75.9614 15.8761C75.972 16.0468 75.9774 16.2761 75.9774 16.5641C75.9774 16.8415 75.972 17.0708 75.9614 17.2521C75.9294 17.9561 75.7694 18.5855 75.4814 19.1401C75.1934 19.6841 74.7774 20.1108 74.2334 20.4201C73.6894 20.7295 73.012 20.8841 72.2014 20.8841ZM72.2014 19.6521C72.8627 19.6521 73.3907 19.4441 73.7854 19.0281C74.18 18.6015 74.3934 17.9828 74.4254 17.1721C74.436 17.0121 74.4414 16.8095 74.4414 16.5641C74.4414 16.3188 74.436 16.1161 74.4254 15.9561C74.3934 15.1455 74.18 14.5321 73.7854 14.1161C73.3907 13.6895 72.8627 13.4761 72.2014 13.4761C71.54 13.4761 71.0067 13.6895 70.6014 14.1161C70.2067 14.5321 69.9987 15.1455 69.9774 15.9561C69.9667 16.1161 69.9614 16.3188 69.9614 16.5641C69.9614 16.8095 69.9667 17.0121 69.9774 17.1721C69.9987 17.9828 70.2067 18.6015 70.6014 19.0281C71.0067 19.4441 71.54 19.6521 72.2014 19.6521ZM83.3729 22.6121C82.2315 22.6121 81.2609 22.4201 80.4609 22.0361C79.6609 21.6521 79.0369 21.0975 78.5889 20.3721C78.1409 19.6361 77.8635 18.7561 77.7569 17.7321C77.7462 17.5828 77.7355 17.3855 77.7249 17.1401C77.7142 16.8948 77.7089 16.6335 77.7089 16.3561C77.7089 16.0788 77.7142 15.8175 77.7249 15.5721C77.7355 15.3268 77.7462 15.1348 77.7569 14.9961C77.8315 14.2708 78.0075 13.6041 78.2849 12.9961C78.5622 12.3881 78.9302 11.8708 79.3889 11.4441C79.8582 11.0068 80.4182 10.6708 81.0689 10.4361C81.7195 10.2015 82.4662 10.0841 83.3089 10.0841C84.2795 10.0841 85.1169 10.1961 85.8209 10.4201C86.5355 10.6441 87.1275 10.9695 87.5969 11.3961C88.0769 11.8228 88.4395 12.3401 88.6849 12.9481C88.9302 13.5561 89.0742 14.2388 89.1169 14.9961C89.1382 15.2735 89.1489 15.5508 89.1489 15.8281C89.1489 16.1055 89.1435 16.3615 89.1329 16.5961C89.1329 16.8201 89.1275 16.9855 89.1169 17.0921C89.0849 17.6148 88.9782 18.0521 88.7969 18.4041C88.6155 18.7561 88.3649 19.0228 88.0449 19.2041C87.7355 19.3748 87.3675 19.4601 86.9409 19.4601C86.5889 19.4601 86.2902 19.4015 86.0449 19.2841C85.7995 19.1668 85.6075 19.0388 85.4689 18.9001C85.3302 18.7508 85.2289 18.6335 85.1649 18.5481C85.0795 18.6868 84.9569 18.8415 84.7969 19.0121C84.6475 19.1828 84.4395 19.3268 84.1729 19.4441C83.9062 19.5615 83.5595 19.6201 83.1329 19.6201C82.3435 19.6201 81.7142 19.3375 81.2449 18.7721C80.7755 18.2068 80.5409 17.4015 80.5409 16.3561C80.5409 15.3108 80.7755 14.5055 81.2449 13.9401C81.7142 13.3641 82.3435 13.0761 83.1329 13.0761C83.5702 13.0761 83.9115 13.1561 84.1569 13.3161C84.4129 13.4761 84.6155 13.6521 84.7649 13.8441V13.5721C84.7649 13.4655 84.7969 13.3801 84.8609 13.3161C84.9355 13.2415 85.0262 13.2041 85.1329 13.2041H85.5649C85.6715 13.2041 85.7569 13.2415 85.8209 13.3161C85.8955 13.3801 85.9329 13.4655 85.9329 13.5721V16.9801C85.9329 17.4388 86.0289 17.7801 86.2209 18.0041C86.4129 18.2281 86.6529 18.3401 86.9409 18.3401C87.2289 18.3401 87.4422 18.2601 87.5809 18.1001C87.7302 17.9401 87.8262 17.7535 87.8689 17.5401C87.9222 17.3161 87.9489 17.1295 87.9489 16.9801C87.9595 16.8201 87.9702 16.5641 87.9809 16.2121C87.9915 15.8601 87.9809 15.4815 87.9489 15.0761C87.8849 14.2335 87.6875 13.5241 87.3569 12.9481C87.0369 12.3721 86.5462 11.9348 85.8849 11.6361C85.2342 11.3375 84.3755 11.1881 83.3089 11.1881C82.4342 11.1881 81.6875 11.3481 81.0689 11.6681C80.4502 11.9775 79.9595 12.4201 79.5969 12.9961C79.2449 13.5721 79.0209 14.2655 78.9249 15.0761C78.9035 15.2575 78.8875 15.5135 78.8769 15.8441C78.8769 16.1748 78.8769 16.5108 78.8769 16.8521C78.8875 17.1828 78.9035 17.4495 78.9249 17.6521C79.0529 18.8788 79.4902 19.8281 80.2369 20.5001C80.9942 21.1615 82.0395 21.4921 83.3729 21.4921C84.1409 21.4921 84.7489 21.4281 85.1969 21.3001C85.6449 21.1828 85.9862 21.0388 86.2209 20.8681C86.4662 20.7081 86.6635 20.5748 86.8129 20.4681C86.8662 20.4255 86.9249 20.3828 86.9889 20.3401C87.0529 20.2868 87.1329 20.2601 87.2289 20.2601H87.8689C87.9649 20.2601 88.0449 20.2975 88.1089 20.3721C88.1835 20.4361 88.2209 20.5161 88.2209 20.6121C88.2209 20.6548 88.2102 20.6921 88.1889 20.7241C88.1782 20.7668 88.1569 20.8041 88.1249 20.8361C87.8475 21.1455 87.5009 21.4335 87.0849 21.7001C86.6689 21.9775 86.1569 22.1961 85.5489 22.3561C84.9515 22.5268 84.2262 22.6121 83.3729 22.6121ZM83.2289 18.5001C83.7942 18.5001 84.1889 18.3081 84.4129 17.9241C84.6475 17.5295 84.7649 17.0068 84.7649 16.3561C84.7649 15.7055 84.6475 15.1828 84.4129 14.7881C84.1889 14.3935 83.7942 14.1961 83.2289 14.1961C82.6849 14.1961 82.2955 14.3935 82.0609 14.7881C81.8262 15.1828 81.7089 15.7055 81.7089 16.3561C81.7089 16.7401 81.7569 17.0975 81.8529 17.4281C81.9595 17.7481 82.1249 18.0095 82.3489 18.2121C82.5729 18.4041 82.8662 18.5001 83.2289 18.5001ZM94.1734 20.8841C93.576 20.8841 93.064 20.8095 92.6374 20.6601C92.2107 20.5108 91.864 20.3295 91.5974 20.1161C91.3307 19.9028 91.128 19.6895 90.9894 19.4761C90.8614 19.2628 90.792 19.0921 90.7814 18.9641C90.7707 18.8468 90.808 18.7561 90.8934 18.6921C90.9787 18.6281 91.064 18.5961 91.1494 18.5961H91.8534C91.9174 18.5961 91.9654 18.6068 91.9974 18.6281C92.04 18.6388 92.0934 18.6815 92.1574 18.7561C92.296 18.9055 92.4507 19.0548 92.6214 19.2041C92.792 19.3535 93 19.4761 93.2454 19.5721C93.5014 19.6681 93.816 19.7161 94.1894 19.7161C94.7334 19.7161 95.1814 19.6148 95.5334 19.4121C95.8854 19.1988 96.0614 18.8895 96.0614 18.4841C96.0614 18.2175 95.9867 18.0041 95.8374 17.8441C95.6987 17.6841 95.4427 17.5401 95.0694 17.4121C94.7067 17.2841 94.2054 17.1508 93.5654 17.0121C92.9254 16.8628 92.4187 16.6815 92.0454 16.4681C91.672 16.2441 91.4054 15.9828 91.2454 15.6841C91.0854 15.3748 91.0054 15.0281 91.0054 14.6441C91.0054 14.2495 91.1227 13.8708 91.3574 13.5081C91.592 13.1348 91.9334 12.8308 92.3814 12.5961C92.84 12.3615 93.4107 12.2441 94.0934 12.2441C94.648 12.2441 95.1227 12.3135 95.5174 12.4521C95.912 12.5908 96.2374 12.7668 96.4934 12.9801C96.7494 13.1828 96.9414 13.3855 97.0694 13.5881C97.1974 13.7908 97.2667 13.9615 97.2774 14.1001C97.288 14.2068 97.256 14.2975 97.1814 14.3721C97.1067 14.4361 97.0214 14.4681 96.9254 14.4681H96.2534C96.1787 14.4681 96.1147 14.4521 96.0614 14.4201C96.0187 14.3881 95.976 14.3508 95.9334 14.3081C95.8267 14.1695 95.6987 14.0308 95.5494 13.8921C95.4107 13.7535 95.224 13.6415 94.9894 13.5561C94.7654 13.4601 94.4667 13.4121 94.0934 13.4121C93.56 13.4121 93.16 13.5241 92.8934 13.7481C92.6267 13.9721 92.4934 14.2548 92.4934 14.5961C92.4934 14.7988 92.552 14.9801 92.6694 15.1401C92.7867 15.3001 93.0107 15.4441 93.3414 15.5721C93.672 15.7001 94.1627 15.8388 94.8134 15.9881C95.5174 16.1268 96.072 16.3135 96.4774 16.5481C96.8827 16.7828 97.1707 17.0548 97.3414 17.3641C97.512 17.6735 97.5974 18.0308 97.5974 18.4361C97.5974 18.8841 97.464 19.2948 97.1974 19.6681C96.9414 20.0415 96.5574 20.3401 96.0454 20.5641C95.544 20.7775 94.92 20.8841 94.1734 20.8841ZM99.8176 20.7241C99.711 20.7241 99.6203 20.6921 99.5456 20.6281C99.4816 20.5535 99.4496 20.4628 99.4496 20.3561V12.7721C99.4496 12.6655 99.4816 12.5801 99.5456 12.5161C99.6203 12.4415 99.711 12.4041 99.8176 12.4041H100.586C100.692 12.4041 100.778 12.4415 100.842 12.5161C100.906 12.5801 100.938 12.6655 100.938 12.7721V20.3561C100.938 20.4628 100.906 20.5535 100.842 20.6281C100.778 20.6921 100.692 20.7241 100.586 20.7241H99.8176ZM99.6896 10.8521C99.583 10.8521 99.4923 10.8201 99.4176 10.7561C99.3536 10.6815 99.3216 10.5908 99.3216 10.4841V9.62012C99.3216 9.51345 99.3536 9.42812 99.4176 9.36412C99.4923 9.28945 99.583 9.25212 99.6896 9.25212H100.698C100.804 9.25212 100.89 9.28945 100.954 9.36412C101.028 9.42812 101.066 9.51345 101.066 9.62012V10.4841C101.066 10.5908 101.028 10.6815 100.954 10.7561C100.89 10.8201 100.804 10.8521 100.698 10.8521H99.6896ZM106.573 20.7241C105.975 20.7241 105.49 20.6121 105.117 20.3881C104.743 20.1535 104.471 19.8281 104.301 19.4121C104.13 18.9855 104.045 18.4841 104.045 17.9081V13.6841H102.797C102.69 13.6841 102.599 13.6521 102.525 13.5881C102.461 13.5135 102.429 13.4228 102.429 13.3161V12.7721C102.429 12.6655 102.461 12.5801 102.525 12.5161C102.599 12.4415 102.69 12.4041 102.797 12.4041H104.045V9.73212C104.045 9.62545 104.077 9.54012 104.141 9.47612C104.215 9.40145 104.306 9.36412 104.413 9.36412H105.165C105.271 9.36412 105.357 9.40145 105.421 9.47612C105.495 9.54012 105.533 9.62545 105.533 9.73212V12.4041H107.517C107.623 12.4041 107.709 12.4415 107.773 12.5161C107.847 12.5801 107.885 12.6655 107.885 12.7721V13.3161C107.885 13.4228 107.847 13.5135 107.773 13.5881C107.709 13.6521 107.623 13.6841 107.517 13.6841H105.533V17.7961C105.533 18.2975 105.618 18.6921 105.789 18.9801C105.959 19.2681 106.263 19.4121 106.701 19.4121H107.677C107.783 19.4121 107.869 19.4495 107.933 19.5241C108.007 19.5881 108.045 19.6735 108.045 19.7801V20.3561C108.045 20.4628 108.007 20.5535 107.933 20.6281C107.869 20.6921 107.783 20.7241 107.677 20.7241H106.573ZM112.887 20.8841C111.788 20.8841 110.913 20.5481 110.263 19.8761C109.612 19.1935 109.255 18.2655 109.191 17.0921C109.18 16.9535 109.175 16.7775 109.175 16.5641C109.175 16.3401 109.18 16.1588 109.191 16.0201C109.233 15.2628 109.409 14.6015 109.719 14.0361C110.028 13.4601 110.449 13.0175 110.983 12.7081C111.527 12.3988 112.161 12.2441 112.887 12.2441C113.697 12.2441 114.375 12.4148 114.919 12.7561C115.473 13.0975 115.895 13.5828 116.183 14.2121C116.471 14.8415 116.615 15.5775 116.615 16.4201V16.6921C116.615 16.8095 116.577 16.9001 116.503 16.9641C116.439 17.0281 116.353 17.0601 116.247 17.0601H110.711C110.711 17.0708 110.711 17.0921 110.711 17.1241C110.711 17.1561 110.711 17.1828 110.711 17.2041C110.732 17.6415 110.828 18.0521 110.999 18.4361C111.169 18.8095 111.415 19.1135 111.735 19.3481C112.055 19.5828 112.439 19.7001 112.887 19.7001C113.271 19.7001 113.591 19.6415 113.847 19.5241C114.103 19.4068 114.311 19.2788 114.471 19.1401C114.631 18.9908 114.737 18.8788 114.791 18.8041C114.887 18.6655 114.961 18.5855 115.015 18.5641C115.068 18.5321 115.153 18.5161 115.271 18.5161H116.039C116.145 18.5161 116.231 18.5481 116.295 18.6121C116.369 18.6655 116.401 18.7455 116.391 18.8521C116.38 19.0121 116.295 19.2095 116.135 19.4441C115.975 19.6681 115.745 19.8921 115.447 20.1161C115.148 20.3401 114.785 20.5268 114.359 20.6761C113.932 20.8148 113.441 20.8841 112.887 20.8841ZM110.711 15.9561H115.095V15.9081C115.095 15.4281 115.004 15.0015 114.823 14.6281C114.652 14.2548 114.401 13.9615 114.071 13.7481C113.74 13.5241 113.345 13.4121 112.887 13.4121C112.428 13.4121 112.033 13.5241 111.703 13.7481C111.383 13.9615 111.137 14.2548 110.967 14.6281C110.796 15.0015 110.711 15.4281 110.711 15.9081V15.9561ZM118.896 20.7241C118.789 20.7241 118.698 20.6921 118.624 20.6281C118.56 20.5535 118.528 20.4628 118.528 20.3561V12.7721C118.528 12.6655 118.56 12.5801 118.624 12.5161C118.698 12.4415 118.789 12.4041 118.896 12.4041H119.648C119.754 12.4041 119.84 12.4415 119.904 12.5161C119.978 12.5801 120.016 12.6655 120.016 12.7721V13.4761C120.293 13.1135 120.64 12.8201 121.056 12.5961C121.482 12.3615 122.026 12.2441 122.688 12.2441C123.381 12.2441 123.968 12.3988 124.448 12.7081C124.938 13.0068 125.306 13.4281 125.552 13.9721C125.797 14.5055 125.92 15.1295 125.92 15.8441V20.3561C125.92 20.4628 125.888 20.5535 125.824 20.6281C125.76 20.6921 125.674 20.7241 125.568 20.7241H124.768C124.661 20.7241 124.57 20.6921 124.496 20.6281C124.432 20.5535 124.4 20.4628 124.4 20.3561V15.9241C124.4 15.1775 124.218 14.5961 123.856 14.1801C123.493 13.7535 122.96 13.5401 122.256 13.5401C121.594 13.5401 121.061 13.7535 120.656 14.1801C120.261 14.5961 120.064 15.1775 120.064 15.9241V20.3561C120.064 20.4628 120.026 20.5535 119.952 20.6281C119.888 20.6921 119.802 20.7241 119.696 20.7241H118.896ZM130.551 20.8841C130.018 20.8841 129.532 20.7775 129.095 20.5641C128.658 20.3508 128.306 20.0628 128.039 19.7001C127.772 19.3375 127.639 18.9268 127.639 18.4681C127.639 17.7321 127.938 17.1455 128.535 16.7081C129.132 16.2708 129.911 15.9828 130.871 15.8441L133.255 15.5081V15.0441C133.255 14.5321 133.106 14.1321 132.807 13.8441C132.519 13.5561 132.044 13.4121 131.383 13.4121C130.903 13.4121 130.514 13.5081 130.215 13.7001C129.927 13.8921 129.724 14.1375 129.607 14.4361C129.543 14.5961 129.431 14.6761 129.271 14.6761H128.551C128.434 14.6761 128.343 14.6441 128.279 14.5801C128.226 14.5055 128.199 14.4201 128.199 14.3241C128.199 14.1641 128.258 13.9668 128.375 13.7321C128.503 13.4975 128.695 13.2681 128.951 13.0441C129.207 12.8201 129.532 12.6335 129.927 12.4841C130.332 12.3241 130.823 12.2441 131.399 12.2441C132.039 12.2441 132.578 12.3295 133.015 12.5001C133.452 12.6601 133.794 12.8788 134.039 13.1561C134.295 13.4335 134.476 13.7481 134.583 14.1001C134.7 14.4521 134.759 14.8095 134.759 15.1721V20.3561C134.759 20.4628 134.722 20.5535 134.647 20.6281C134.583 20.6921 134.498 20.7241 134.391 20.7241H133.655C133.538 20.7241 133.447 20.6921 133.383 20.6281C133.319 20.5535 133.287 20.4628 133.287 20.3561V19.6681C133.148 19.8601 132.962 20.0521 132.727 20.2441C132.492 20.4255 132.199 20.5801 131.847 20.7081C131.495 20.8255 131.063 20.8841 130.551 20.8841ZM130.887 19.6841C131.324 19.6841 131.724 19.5935 132.087 19.4121C132.45 19.2201 132.732 18.9268 132.935 18.5321C133.148 18.1375 133.255 17.6415 133.255 17.0441V16.5961L131.399 16.8681C130.642 16.9748 130.071 17.1561 129.687 17.4121C129.303 17.6575 129.111 17.9721 129.111 18.3561C129.111 18.6548 129.196 18.9055 129.367 19.1081C129.548 19.3001 129.772 19.4441 130.039 19.5401C130.316 19.6361 130.599 19.6841 130.887 19.6841ZM137.427 20.7241C137.32 20.7241 137.23 20.6921 137.155 20.6281C137.091 20.5535 137.059 20.4628 137.059 20.3561V12.7721C137.059 12.6655 137.091 12.5801 137.155 12.5161C137.23 12.4415 137.32 12.4041 137.427 12.4041H138.147C138.254 12.4041 138.339 12.4415 138.403 12.5161C138.478 12.5801 138.515 12.6655 138.515 12.7721V13.3321C138.76 13.0015 139.07 12.7401 139.443 12.5481C139.816 12.3455 140.264 12.2441 140.787 12.2441C141.992 12.2335 142.846 12.7241 143.347 13.7161C143.592 13.2681 143.95 12.9108 144.419 12.6441C144.888 12.3775 145.422 12.2441 146.019 12.2441C146.574 12.2441 147.075 12.3721 147.523 12.6281C147.982 12.8841 148.339 13.2735 148.595 13.7961C148.862 14.3081 148.995 14.9535 148.995 15.7321V20.3561C148.995 20.4628 148.958 20.5535 148.883 20.6281C148.819 20.6921 148.734 20.7241 148.627 20.7241H147.875C147.768 20.7241 147.678 20.6921 147.603 20.6281C147.539 20.5535 147.507 20.4628 147.507 20.3561V15.8761C147.507 15.2788 147.422 14.8095 147.251 14.4681C147.08 14.1268 146.851 13.8868 146.563 13.7481C146.275 13.6095 145.96 13.5401 145.619 13.5401C145.342 13.5401 145.059 13.6095 144.771 13.7481C144.483 13.8868 144.243 14.1268 144.051 14.4681C143.87 14.8095 143.779 15.2788 143.779 15.8761V20.3561C143.779 20.4628 143.742 20.5535 143.667 20.6281C143.603 20.6921 143.518 20.7241 143.411 20.7241H142.659C142.552 20.7241 142.462 20.6921 142.387 20.6281C142.323 20.5535 142.291 20.4628 142.291 20.3561V15.8761C142.291 15.2788 142.2 14.8095 142.019 14.4681C141.838 14.1268 141.603 13.8868 141.315 13.7481C141.027 13.6095 140.723 13.5401 140.403 13.5401C140.126 13.5401 139.843 13.6095 139.555 13.7481C139.267 13.8868 139.027 14.1268 138.835 14.4681C138.654 14.8095 138.563 15.2735 138.563 15.8601V20.3561C138.563 20.4628 138.526 20.5535 138.451 20.6281C138.387 20.6921 138.302 20.7241 138.195 20.7241H137.427ZM154.59 20.8841C153.491 20.8841 152.616 20.5481 151.966 19.8761C151.315 19.1935 150.958 18.2655 150.894 17.0921C150.883 16.9535 150.878 16.7775 150.878 16.5641C150.878 16.3401 150.883 16.1588 150.894 16.0201C150.936 15.2628 151.112 14.6015 151.422 14.0361C151.731 13.4601 152.152 13.0175 152.686 12.7081C153.23 12.3988 153.864 12.2441 154.59 12.2441C155.4 12.2441 156.078 12.4148 156.622 12.7561C157.176 13.0975 157.598 13.5828 157.886 14.2121C158.174 14.8415 158.318 15.5775 158.318 16.4201V16.6921C158.318 16.8095 158.28 16.9001 158.206 16.9641C158.142 17.0281 158.056 17.0601 157.95 17.0601H152.414C152.414 17.0708 152.414 17.0921 152.414 17.1241C152.414 17.1561 152.414 17.1828 152.414 17.2041C152.435 17.6415 152.531 18.0521 152.702 18.4361C152.872 18.8095 153.118 19.1135 153.438 19.3481C153.758 19.5828 154.142 19.7001 154.59 19.7001C154.974 19.7001 155.294 19.6415 155.55 19.5241C155.806 19.4068 156.014 19.2788 156.174 19.1401C156.334 18.9908 156.44 18.8788 156.494 18.8041C156.59 18.6655 156.664 18.5855 156.718 18.5641C156.771 18.5321 156.856 18.5161 156.974 18.5161H157.742C157.848 18.5161 157.934 18.5481 157.998 18.6121C158.072 18.6655 158.104 18.7455 158.094 18.8521C158.083 19.0121 157.998 19.2095 157.838 19.4441C157.678 19.6681 157.448 19.8921 157.15 20.1161C156.851 20.3401 156.488 20.5268 156.062 20.6761C155.635 20.8148 155.144 20.8841 154.59 20.8841ZM152.414 15.9561H156.798V15.9081C156.798 15.4281 156.707 15.0015 156.526 14.6281C156.355 14.2548 156.104 13.9615 155.774 13.7481C155.443 13.5241 155.048 13.4121 154.59 13.4121C154.131 13.4121 153.736 13.5241 153.406 13.7481C153.086 13.9615 152.84 14.2548 152.67 14.6281C152.499 15.0015 152.414 15.4281 152.414 15.9081V15.9561ZM160.487 20.7241C160.38 20.7241 160.29 20.6921 160.215 20.6281C160.151 20.5535 160.119 20.4628 160.119 20.3561V19.2041C160.119 19.0975 160.151 19.0121 160.215 18.9481C160.29 18.8735 160.38 18.8361 160.487 18.8361H161.639C161.746 18.8361 161.831 18.8735 161.895 18.9481C161.97 19.0121 162.007 19.0975 162.007 19.2041V20.3561C162.007 20.4628 161.97 20.5535 161.895 20.6281C161.831 20.6921 161.746 20.7241 161.639 20.7241H160.487ZM52.544 50.8841C51.7867 50.8841 51.1307 50.7401 50.576 50.4521C50.032 50.1535 49.6107 49.7321 49.312 49.1881C49.0133 48.6335 48.8533 47.9721 48.832 47.2041C48.8213 47.0441 48.816 46.8308 48.816 46.5641C48.816 46.2975 48.8213 46.0841 48.832 45.9241C48.8533 45.1561 49.0133 44.5001 49.312 43.9561C49.6107 43.4015 50.032 42.9801 50.576 42.6921C51.1307 42.3935 51.7867 42.2441 52.544 42.2441C53.1627 42.2441 53.6907 42.3295 54.128 42.5001C54.576 42.6708 54.944 42.8895 55.232 43.1561C55.52 43.4228 55.7333 43.7108 55.872 44.0201C56.0213 44.3295 56.1013 44.6228 56.112 44.9001C56.1227 45.0068 56.0907 45.0921 56.016 45.1561C55.9413 45.2201 55.8507 45.2521 55.744 45.2521H54.976C54.8693 45.2521 54.7893 45.2308 54.736 45.1881C54.6827 45.1348 54.6293 45.0495 54.576 44.9321C54.384 44.4095 54.1227 44.0415 53.792 43.8281C53.4613 43.6148 53.0507 43.5081 52.56 43.5081C51.92 43.5081 51.3973 43.7055 50.992 44.1001C50.5973 44.4948 50.384 45.1295 50.352 46.0041C50.3413 46.3881 50.3413 46.7615 50.352 47.1241C50.384 48.0095 50.5973 48.6495 50.992 49.0441C51.3973 49.4281 51.92 49.6201 52.56 49.6201C53.0507 49.6201 53.4613 49.5135 53.792 49.3001C54.1227 49.0868 54.384 48.7188 54.576 48.1961C54.6293 48.0788 54.6827 47.9988 54.736 47.9561C54.7893 47.9028 54.8693 47.8761 54.976 47.8761H55.744C55.8507 47.8761 55.9413 47.9081 56.016 47.9721C56.0907 48.0361 56.1227 48.1215 56.112 48.2281C56.1013 48.4521 56.0533 48.6815 55.968 48.9161C55.8827 49.1508 55.744 49.3908 55.552 49.6361C55.3707 49.8708 55.1413 50.0841 54.864 50.2761C54.5867 50.4575 54.2507 50.6068 53.856 50.7241C53.472 50.8308 53.0347 50.8841 52.544 50.8841ZM61.4201 50.8841C60.6095 50.8841 59.9321 50.7295 59.3881 50.4201C58.8441 50.1108 58.4281 49.6841 58.1401 49.1401C57.8521 48.5855 57.6921 47.9561 57.6601 47.2521C57.6495 47.0708 57.6441 46.8415 57.6441 46.5641C57.6441 46.2761 57.6495 46.0468 57.6601 45.8761C57.6921 45.1615 57.8521 44.5321 58.1401 43.9881C58.4388 43.4441 58.8601 43.0175 59.4041 42.7081C59.9481 42.3988 60.6201 42.2441 61.4201 42.2441C62.2201 42.2441 62.8921 42.3988 63.4361 42.7081C63.9801 43.0175 64.3961 43.4441 64.6841 43.9881C64.9828 44.5321 65.1481 45.1615 65.1801 45.8761C65.1908 46.0468 65.1961 46.2761 65.1961 46.5641C65.1961 46.8415 65.1908 47.0708 65.1801 47.2521C65.1481 47.9561 64.9881 48.5855 64.7001 49.1401C64.4121 49.6841 63.9961 50.1108 63.4521 50.4201C62.9081 50.7295 62.2308 50.8841 61.4201 50.8841ZM61.4201 49.6521C62.0815 49.6521 62.6095 49.4441 63.0041 49.0281C63.3988 48.6015 63.6121 47.9828 63.6441 47.1721C63.6548 47.0121 63.6601 46.8095 63.6601 46.5641C63.6601 46.3188 63.6548 46.1161 63.6441 45.9561C63.6121 45.1455 63.3988 44.5321 63.0041 44.1161C62.6095 43.6895 62.0815 43.4761 61.4201 43.4761C60.7588 43.4761 60.2255 43.6895 59.8201 44.1161C59.4255 44.5321 59.2175 45.1455 59.1961 45.9561C59.1855 46.1161 59.1801 46.3188 59.1801 46.5641C59.1801 46.8095 59.1855 47.0121 59.1961 47.1721C59.2175 47.9828 59.4255 48.6015 59.8201 49.0281C60.2255 49.4441 60.7588 49.6521 61.4201 49.6521ZM67.5676 50.7241C67.461 50.7241 67.3703 50.6921 67.2956 50.6281C67.2316 50.5535 67.1996 50.4628 67.1996 50.3561V42.7721C67.1996 42.6655 67.2316 42.5801 67.2956 42.5161C67.3703 42.4415 67.461 42.4041 67.5676 42.4041H68.2876C68.3943 42.4041 68.4796 42.4415 68.5436 42.5161C68.6183 42.5801 68.6556 42.6655 68.6556 42.7721V43.3321C68.901 43.0015 69.2103 42.7401 69.5836 42.5481C69.957 42.3455 70.405 42.2441 70.9276 42.2441C72.133 42.2335 72.9863 42.7241 73.4876 43.7161C73.733 43.2681 74.0903 42.9108 74.5596 42.6441C75.029 42.3775 75.5623 42.2441 76.1596 42.2441C76.7143 42.2441 77.2156 42.3721 77.6636 42.6281C78.1223 42.8841 78.4796 43.2735 78.7356 43.7961C79.0023 44.3081 79.1356 44.9535 79.1356 45.7321V50.3561C79.1356 50.4628 79.0983 50.5535 79.0236 50.6281C78.9596 50.6921 78.8743 50.7241 78.7676 50.7241H78.0156C77.909 50.7241 77.8183 50.6921 77.7436 50.6281C77.6796 50.5535 77.6476 50.4628 77.6476 50.3561V45.8761C77.6476 45.2788 77.5623 44.8095 77.3916 44.4681C77.221 44.1268 76.9916 43.8868 76.7036 43.7481C76.4156 43.6095 76.101 43.5401 75.7596 43.5401C75.4823 43.5401 75.1996 43.6095 74.9116 43.7481C74.6236 43.8868 74.3836 44.1268 74.1916 44.4681C74.0103 44.8095 73.9196 45.2788 73.9196 45.8761V50.3561C73.9196 50.4628 73.8823 50.5535 73.8076 50.6281C73.7436 50.6921 73.6583 50.7241 73.5516 50.7241H72.7996C72.693 50.7241 72.6023 50.6921 72.5276 50.6281C72.4636 50.5535 72.4316 50.4628 72.4316 50.3561V45.8761C72.4316 45.2788 72.341 44.8095 72.1596 44.4681C71.9783 44.1268 71.7436 43.8868 71.4556 43.7481C71.1676 43.6095 70.8636 43.5401 70.5436 43.5401C70.2663 43.5401 69.9836 43.6095 69.6956 43.7481C69.4076 43.8868 69.1676 44.1268 68.9756 44.4681C68.7943 44.8095 68.7036 45.2735 68.7036 45.8601V50.3561C68.7036 50.4628 68.6663 50.5535 68.5916 50.6281C68.5276 50.6921 68.4423 50.7241 68.3356 50.7241H67.5676Z" fill="black"/>
<defs>
<filter id="filter0_d_3013_59" x="0" y="0.553955" width="56" height="55.3201" filterUnits="userSpaceOnUse" color-interpolation-filters="sRGB">
<feFlood flood-opacity="0" result="BackgroundImageFix"/>
<feColorMatrix in="SourceAlpha" type="matrix" values="0 0 0 0 0 0 0 0 0 0 0 0 0 0 0 0 0 0 127 0" result="hardAlpha"/>
<feOffset dy="13"/>
<feGaussianBlur stdDeviation="9"/>
<feColorMatrix type="matrix" values="0 0 0 0 0.0658854 0 0 0 0 0.0730469 0 0 0 0 0.1375 0 0 0 0.08 0"/>
<feBlend mode="normal" in2="BackgroundImageFix" result="effect1_dropShadow_3013_59"/>
<feBlend mode="normal" in="SourceGraphic" in2="effect1_dropShadow_3013_59" result="shape"/>
</filter>
</defs>
</svg>
