<svg width="182" height="57" viewBox="0 0 182 57" fill="none" xmlns="http://www.w3.org/2000/svg">
<g filter="url(#filter0_d_3013_62)">
<ellipse cx="28" cy="15.5479" rx="10" ry="9.66" fill="#FF5E3A"/>
</g>
<path d="M23.9168 14.3423C25.0347 16.6943 27.0238 18.5643 29.4969 19.578L29.8933 19.7486C30.8003 20.139 31.8665 19.8424 32.4197 19.0459L32.9377 18.3C33.1062 18.0575 33.0549 17.7309 32.8196 17.5475L31.0627 16.1783C30.8046 15.9772 30.4252 16.024 30.2277 16.2814L29.6842 16.9898C28.2896 16.3253 27.1573 15.2315 26.4694 13.8843L27.2028 13.3592C27.4692 13.1685 27.5176 12.802 27.3095 12.5527L25.892 10.8555C25.7023 10.6282 25.3642 10.5786 25.1132 10.7413L24.3357 11.2449C23.506 11.7823 23.2007 12.8207 23.6141 13.6992L23.9163 14.3414L23.9168 14.3423Z" fill="white"/>
<path d="M52.688 21.4959C52.5813 21.4959 52.4907 21.4639 52.416 21.3999C52.352 21.3253 52.32 21.2346 52.32 21.1279V17.7999H49.04C48.9333 17.7999 48.8427 17.7679 48.768 17.7039C48.704 17.6293 48.672 17.5386 48.672 17.4319V16.9199C48.672 16.8133 48.704 16.7279 48.768 16.6639C48.8427 16.5893 48.9333 16.5519 49.04 16.5519H52.32V13.3199C52.32 13.2133 52.352 13.1279 52.416 13.0639C52.4907 12.9893 52.5813 12.9519 52.688 12.9519H53.248C53.3547 12.9519 53.44 12.9893 53.504 13.0639C53.5787 13.1279 53.616 13.2133 53.616 13.3199V16.5519H56.912C57.0187 16.5519 57.104 16.5893 57.168 16.6639C57.2427 16.7279 57.28 16.8133 57.28 16.9199V17.4319C57.28 17.5386 57.2427 17.6293 57.168 17.7039C57.104 17.7679 57.0187 17.7999 56.912 17.7999H53.616V21.1279C53.616 21.2346 53.5787 21.3253 53.504 21.3999C53.44 21.4639 53.3547 21.4959 53.248 21.4959H52.688ZM64.3691 22.0239C64.2625 22.0239 64.1718 21.9919 64.0971 21.9279C64.0331 21.8533 64.0011 21.7626 64.0011 21.6559V19.3519H58.8171C58.7105 19.3519 58.6198 19.3199 58.5451 19.2559C58.4811 19.1813 58.4491 19.0906 58.4491 18.9839V18.3439C58.4491 18.3013 58.4598 18.2373 58.4811 18.1519C58.5131 18.0559 58.5611 17.9599 58.6251 17.8639L63.4251 11.0959C63.5531 10.9146 63.7505 10.8239 64.0171 10.8239H65.1691C65.2758 10.8239 65.3611 10.8613 65.4251 10.9359C65.4998 10.9999 65.5371 11.0853 65.5371 11.1919V17.9599H66.9771C67.0945 17.9599 67.1851 17.9973 67.2491 18.0719C67.3238 18.1359 67.3611 18.2213 67.3611 18.3279V18.9839C67.3611 19.0906 67.3238 19.1813 67.2491 19.2559C67.1851 19.3199 67.0998 19.3519 66.9931 19.3519H65.5371V21.6559C65.5371 21.7626 65.4998 21.8533 65.4251 21.9279C65.3611 21.9919 65.2758 22.0239 65.1691 22.0239H64.3691ZM60.1611 17.9919H64.0171V12.5039L60.1611 17.9919ZM72.5626 22.1839C71.72 22.1839 71.0053 22.0399 70.4186 21.7519C69.8426 21.4533 69.4 21.0693 69.0906 20.5999C68.792 20.1306 68.632 19.6346 68.6106 19.1119C68.6 19.0159 68.6266 18.9413 68.6906 18.8879C68.7546 18.8346 68.8346 18.8079 68.9306 18.8079H69.7946C69.8906 18.8079 69.976 18.8293 70.0506 18.8719C70.1253 18.9146 70.184 19.0053 70.2266 19.1439C70.3333 19.5386 70.504 19.8639 70.7386 20.1199C70.984 20.3653 71.2613 20.5466 71.5706 20.6639C71.8906 20.7706 72.2213 20.8239 72.5626 20.8239C73.0213 20.8239 73.4373 20.7333 73.8106 20.5519C74.1946 20.3599 74.4986 20.0826 74.7226 19.7199C74.9466 19.3466 75.0586 18.8986 75.0586 18.3759C75.0586 17.8959 74.9466 17.4853 74.7226 17.1439C74.5093 16.7919 74.2106 16.5253 73.8266 16.3439C73.4533 16.1519 73.032 16.0559 72.5626 16.0559C72.2106 16.0559 71.9226 16.0986 71.6986 16.1839C71.4746 16.2693 71.2826 16.3706 71.1226 16.4879C70.9733 16.6053 70.8346 16.7066 70.7066 16.7919C70.5893 16.8773 70.456 16.9199 70.3066 16.9199H69.4746C69.3786 16.9199 69.2933 16.8879 69.2186 16.8239C69.144 16.7493 69.112 16.6639 69.1226 16.5679L69.6346 11.2239C69.6453 11.0959 69.6826 10.9999 69.7466 10.9359C69.8213 10.8613 69.9173 10.8239 70.0346 10.8239H75.6186C75.7253 10.8239 75.8106 10.8613 75.8746 10.9359C75.9493 10.9999 75.9866 11.0853 75.9866 11.1919V11.8159C75.9866 11.9333 75.9493 12.0239 75.8746 12.0879C75.8106 12.1519 75.7253 12.1839 75.6186 12.1839H71.0106L70.7066 15.3359C70.856 15.2399 71.096 15.1279 71.4266 14.9999C71.7573 14.8613 72.2106 14.7919 72.7866 14.7919C73.3093 14.7919 73.8 14.8719 74.2586 15.0319C74.728 15.1919 75.144 15.4266 75.5066 15.7359C75.8693 16.0453 76.152 16.4239 76.3546 16.8719C76.5573 17.3093 76.6586 17.8159 76.6586 18.3919C76.6586 19.2026 76.4773 19.8906 76.1146 20.4559C75.7626 21.0213 75.2773 21.4533 74.6586 21.7519C74.0506 22.0399 73.352 22.1839 72.5626 22.1839ZM82.3186 22.1839C81.4333 22.1839 80.6813 22.0079 80.0626 21.6559C79.444 21.2933 78.9693 20.8239 78.6386 20.2479C78.3186 19.6613 78.1586 19.0266 78.1586 18.3439C78.1586 18.0239 78.196 17.7199 78.2706 17.4319C78.356 17.1333 78.4573 16.8559 78.5746 16.5999C78.7026 16.3333 78.8253 16.0986 78.9426 15.8959C79.0706 15.6826 79.1826 15.5119 79.2786 15.3839L82.3186 11.1439C82.372 11.0906 82.436 11.0266 82.5106 10.9519C82.5853 10.8666 82.6973 10.8239 82.8466 10.8239H83.6946C83.7906 10.8239 83.8653 10.8613 83.9186 10.9359C83.9826 10.9999 84.0146 11.0799 84.0146 11.1759C84.0146 11.2186 84.0093 11.2613 83.9986 11.3039C83.988 11.3359 83.972 11.3626 83.9506 11.3839L81.6146 14.6479C81.7426 14.6053 81.8866 14.5786 82.0466 14.5679C82.2173 14.5466 82.3773 14.5359 82.5266 14.5359C83.1133 14.5466 83.6466 14.6533 84.1266 14.8559C84.6066 15.0586 85.0173 15.3359 85.3586 15.6879C85.7106 16.0293 85.9773 16.4293 86.1586 16.8879C86.34 17.3359 86.4306 17.8159 86.4306 18.3279C86.4306 18.9999 86.2706 19.6293 85.9506 20.2159C85.6306 20.8026 85.1613 21.2773 84.5426 21.6399C83.9346 22.0026 83.1933 22.1839 82.3186 22.1839ZM82.3026 20.8239C82.7506 20.8239 83.1666 20.7279 83.5506 20.5359C83.9346 20.3439 84.244 20.0666 84.4786 19.7039C84.724 19.3306 84.8466 18.8773 84.8466 18.3439C84.8466 17.7999 84.7293 17.3466 84.4946 16.9839C84.26 16.6106 83.9453 16.3333 83.5506 16.1519C83.1666 15.9599 82.7506 15.8639 82.3026 15.8639C81.8546 15.8639 81.4386 15.9599 81.0546 16.1519C80.6706 16.3333 80.356 16.6106 80.1106 16.9839C79.876 17.3466 79.7586 17.7999 79.7586 18.3439C79.7586 18.8773 79.876 19.3306 80.1106 19.7039C80.356 20.0666 80.6706 20.3439 81.0546 20.5359C81.4386 20.7279 81.8546 20.8239 82.3026 20.8239ZM93.3371 22.0239C93.2411 22.0239 93.1611 21.9919 93.0971 21.9279C93.0438 21.8533 93.0171 21.7679 93.0171 21.6719C93.0171 21.6399 93.0278 21.5919 93.0491 21.5279L97.0331 12.2159H91.7851C91.6785 12.2159 91.5878 12.1839 91.5131 12.1199C91.4491 12.0453 91.4171 11.9546 91.4171 11.8479V11.2079C91.4171 11.0906 91.4491 10.9999 91.5131 10.9359C91.5878 10.8613 91.6785 10.8239 91.7851 10.8239H98.3451C98.4625 10.8239 98.5531 10.8613 98.6171 10.9359C98.6918 10.9999 98.7291 11.0906 98.7291 11.2079V11.7999C98.7291 11.9386 98.7185 12.0506 98.6971 12.1359C98.6758 12.2213 98.6438 12.3173 98.6011 12.4239L94.6491 21.6239C94.6171 21.7093 94.5638 21.7999 94.4891 21.8959C94.4251 21.9813 94.3291 22.0239 94.2011 22.0239H93.3371ZM104.244 22.1839C103.626 22.1839 103.055 22.1093 102.532 21.9599C102.02 21.7999 101.578 21.5759 101.204 21.2879C100.842 20.9893 100.559 20.6319 100.356 20.2159C100.154 19.7999 100.052 19.3306 100.052 18.8079C100.052 18.1573 100.207 17.5973 100.516 17.1279C100.836 16.6586 101.258 16.3013 101.78 16.0559C101.364 15.8106 101.039 15.4906 100.804 15.0959C100.57 14.7013 100.452 14.2319 100.452 13.6879C100.452 13.0479 100.607 12.5093 100.916 12.0719C101.236 11.6239 101.679 11.2773 102.244 11.0319C102.82 10.7866 103.487 10.6639 104.244 10.6639C104.991 10.6639 105.647 10.7866 106.212 11.0319C106.788 11.2666 107.231 11.6079 107.54 12.0559C107.86 12.5039 108.02 13.0426 108.02 13.6719C108.02 14.2159 107.903 14.6906 107.668 15.0959C107.434 15.4906 107.114 15.8106 106.708 16.0559C107.231 16.3013 107.647 16.6586 107.956 17.1279C108.276 17.5973 108.436 18.1573 108.436 18.8079C108.436 19.5013 108.26 20.1039 107.908 20.6159C107.556 21.1173 107.066 21.5066 106.436 21.7839C105.807 22.0506 105.076 22.1839 104.244 22.1839ZM104.244 20.9039C104.735 20.9039 105.178 20.8186 105.572 20.6479C105.967 20.4773 106.282 20.2373 106.516 19.9279C106.751 19.6079 106.868 19.2346 106.868 18.8079C106.868 18.3706 106.751 18.0026 106.516 17.7039C106.282 17.3946 105.967 17.1599 105.572 16.9999C105.178 16.8293 104.735 16.7439 104.244 16.7439C103.754 16.7439 103.306 16.8293 102.9 16.9999C102.506 17.1599 102.191 17.3946 101.956 17.7039C101.722 18.0026 101.604 18.3706 101.604 18.8079C101.604 19.2346 101.722 19.6079 101.956 19.9279C102.191 20.2373 102.506 20.4773 102.9 20.6479C103.306 20.8186 103.754 20.9039 104.244 20.9039ZM104.244 15.4799C104.65 15.4799 105.023 15.4053 105.364 15.2559C105.716 15.1066 105.994 14.9039 106.196 14.6479C106.41 14.3919 106.516 14.0826 106.516 13.7199C106.516 13.3573 106.415 13.0426 106.212 12.7759C106.02 12.5093 105.748 12.3066 105.396 12.1679C105.055 12.0186 104.671 11.9439 104.244 11.9439C103.818 11.9439 103.428 12.0186 103.076 12.1679C102.735 12.3066 102.463 12.5093 102.26 12.7759C102.058 13.0426 101.956 13.3573 101.956 13.7199C101.956 14.0933 102.058 14.4133 102.26 14.6799C102.463 14.9359 102.735 15.1333 103.076 15.2719C103.428 15.4106 103.818 15.4799 104.244 15.4799ZM112.416 22.0239C112.32 22.0239 112.24 21.9919 112.176 21.9279C112.123 21.8533 112.096 21.7679 112.096 21.6719C112.096 21.6186 112.101 21.5759 112.112 21.5439C112.133 21.5119 112.149 21.4853 112.16 21.4639L114.608 18.0559C114.341 18.1199 114.053 18.1519 113.744 18.1519C113.147 18.1413 112.613 18.0346 112.144 17.8319C111.675 17.6293 111.275 17.3573 110.944 17.0159C110.613 16.6639 110.363 16.2693 110.192 15.8319C110.021 15.3946 109.936 14.9359 109.936 14.4559C109.936 13.9866 110.016 13.5279 110.176 13.0799C110.347 12.6319 110.597 12.2266 110.928 11.8639C111.269 11.5013 111.691 11.2133 112.192 10.9999C112.693 10.7759 113.285 10.6639 113.968 10.6639C114.64 10.6639 115.227 10.7706 115.728 10.9839C116.24 11.1866 116.667 11.4693 117.008 11.8319C117.36 12.1839 117.616 12.5839 117.776 13.0319C117.947 13.4799 118.032 13.9439 118.032 14.4239C118.032 14.8613 117.968 15.2613 117.84 15.6239C117.712 15.9866 117.557 16.3119 117.376 16.5999C117.205 16.8879 117.035 17.1546 116.864 17.3999L113.792 21.7039C113.749 21.7573 113.691 21.8266 113.616 21.9119C113.541 21.9866 113.429 22.0239 113.28 22.0239H112.416ZM113.968 16.8559C114.416 16.8559 114.827 16.7599 115.2 16.5679C115.584 16.3653 115.888 16.0879 116.112 15.7359C116.336 15.3733 116.448 14.9413 116.448 14.4399C116.448 13.9386 116.336 13.5119 116.112 13.1599C115.888 12.7973 115.584 12.5199 115.2 12.3279C114.827 12.1253 114.416 12.0239 113.968 12.0239C113.531 12.0239 113.125 12.1253 112.752 12.3279C112.379 12.5199 112.08 12.7973 111.856 13.1599C111.632 13.5119 111.52 13.9386 111.52 14.4399C111.52 14.9413 111.632 15.3733 111.856 15.7359C112.08 16.0879 112.379 16.3653 112.752 16.5679C113.125 16.7599 113.531 16.8559 113.968 16.8559ZM125.118 22.0239C125.022 22.0239 124.942 21.9919 124.878 21.9279C124.825 21.8533 124.798 21.7679 124.798 21.6719C124.798 21.6399 124.809 21.5919 124.83 21.5279L128.814 12.2159H123.566C123.46 12.2159 123.369 12.1839 123.294 12.1199C123.23 12.0453 123.198 11.9546 123.198 11.8479V11.2079C123.198 11.0906 123.23 10.9999 123.294 10.9359C123.369 10.8613 123.46 10.8239 123.566 10.8239H130.126C130.244 10.8239 130.334 10.8613 130.398 10.9359C130.473 10.9999 130.51 11.0906 130.51 11.2079V11.7999C130.51 11.9386 130.5 12.0506 130.478 12.1359C130.457 12.2213 130.425 12.3173 130.382 12.4239L126.43 21.6239C126.398 21.7093 126.345 21.7999 126.27 21.8959C126.206 21.9813 126.11 22.0239 125.982 22.0239H125.118ZM136.026 22.1839C135.407 22.1839 134.836 22.1093 134.314 21.9599C133.802 21.7999 133.359 21.5759 132.986 21.2879C132.623 20.9893 132.34 20.6319 132.138 20.2159C131.935 19.7999 131.834 19.3306 131.834 18.8079C131.834 18.1573 131.988 17.5973 132.298 17.1279C132.618 16.6586 133.039 16.3013 133.562 16.0559C133.146 15.8106 132.82 15.4906 132.586 15.0959C132.351 14.7013 132.234 14.2319 132.234 13.6879C132.234 13.0479 132.388 12.5093 132.698 12.0719C133.018 11.6239 133.46 11.2773 134.026 11.0319C134.602 10.7866 135.268 10.6639 136.026 10.6639C136.772 10.6639 137.428 10.7866 137.994 11.0319C138.57 11.2666 139.012 11.6079 139.322 12.0559C139.642 12.5039 139.802 13.0426 139.802 13.6719C139.802 14.2159 139.684 14.6906 139.45 15.0959C139.215 15.4906 138.895 15.8106 138.49 16.0559C139.012 16.3013 139.428 16.6586 139.738 17.1279C140.058 17.5973 140.218 18.1573 140.218 18.8079C140.218 19.5013 140.042 20.1039 139.69 20.6159C139.338 21.1173 138.847 21.5066 138.218 21.7839C137.588 22.0506 136.858 22.1839 136.026 22.1839ZM136.026 20.9039C136.516 20.9039 136.959 20.8186 137.354 20.6479C137.748 20.4773 138.063 20.2373 138.298 19.9279C138.532 19.6079 138.65 19.2346 138.65 18.8079C138.65 18.3706 138.532 18.0026 138.298 17.7039C138.063 17.3946 137.748 17.1599 137.354 16.9999C136.959 16.8293 136.516 16.7439 136.026 16.7439C135.535 16.7439 135.087 16.8293 134.682 16.9999C134.287 17.1599 133.972 17.3946 133.738 17.7039C133.503 18.0026 133.386 18.3706 133.386 18.8079C133.386 19.2346 133.503 19.6079 133.738 19.9279C133.972 20.2373 134.287 20.4773 134.682 20.6479C135.087 20.8186 135.535 20.9039 136.026 20.9039ZM136.026 15.4799C136.431 15.4799 136.804 15.4053 137.146 15.2559C137.498 15.1066 137.775 14.9039 137.978 14.6479C138.191 14.3919 138.298 14.0826 138.298 13.7199C138.298 13.3573 138.196 13.0426 137.994 12.7759C137.802 12.5093 137.53 12.3066 137.178 12.1679C136.836 12.0186 136.452 11.9439 136.026 11.9439C135.599 11.9439 135.21 12.0186 134.858 12.1679C134.516 12.3066 134.244 12.5093 134.042 12.7759C133.839 13.0426 133.738 13.3573 133.738 13.7199C133.738 14.0933 133.839 14.4133 134.042 14.6799C134.244 14.9359 134.516 15.1333 134.858 15.2719C135.21 15.4106 135.599 15.4799 136.026 15.4799ZM144.197 22.0239C144.101 22.0239 144.021 21.9919 143.957 21.9279C143.904 21.8533 143.877 21.7679 143.877 21.6719C143.877 21.6186 143.883 21.5759 143.893 21.5439C143.915 21.5119 143.931 21.4853 143.941 21.4639L146.389 18.0559C146.123 18.1199 145.835 18.1519 145.525 18.1519C144.928 18.1413 144.395 18.0346 143.925 17.8319C143.456 17.6293 143.056 17.3573 142.725 17.0159C142.395 16.6639 142.144 16.2693 141.973 15.8319C141.803 15.3946 141.717 14.9359 141.717 14.4559C141.717 13.9866 141.797 13.5279 141.957 13.0799C142.128 12.6319 142.379 12.2266 142.709 11.8639C143.051 11.5013 143.472 11.2133 143.973 10.9999C144.475 10.7759 145.067 10.6639 145.749 10.6639C146.421 10.6639 147.008 10.7706 147.509 10.9839C148.021 11.1866 148.448 11.4693 148.789 11.8319C149.141 12.1839 149.397 12.5839 149.557 13.0319C149.728 13.4799 149.813 13.9439 149.813 14.4239C149.813 14.8613 149.749 15.2613 149.621 15.6239C149.493 15.9866 149.339 16.3119 149.157 16.5999C148.987 16.8879 148.816 17.1546 148.645 17.3999L145.573 21.7039C145.531 21.7573 145.472 21.8266 145.397 21.9119C145.323 21.9866 145.211 22.0239 145.061 22.0239H144.197ZM145.749 16.8559C146.197 16.8559 146.608 16.7599 146.981 16.5679C147.365 16.3653 147.669 16.0879 147.893 15.7359C148.117 15.3733 148.229 14.9413 148.229 14.4399C148.229 13.9386 148.117 13.5119 147.893 13.1599C147.669 12.7973 147.365 12.5199 146.981 12.3279C146.608 12.1253 146.197 12.0239 145.749 12.0239C145.312 12.0239 144.907 12.1253 144.533 12.3279C144.16 12.5199 143.861 12.7973 143.637 13.1599C143.413 13.5119 143.301 13.9386 143.301 14.4399C143.301 14.9413 143.413 15.3733 143.637 15.7359C143.861 16.0879 144.16 16.3653 144.533 16.5679C144.907 16.7599 145.312 16.8559 145.749 16.8559ZM159.588 22.1839C158.852 22.1839 158.228 22.0719 157.716 21.8479C157.214 21.6133 156.804 21.2933 156.484 20.8879C156.164 20.4826 155.929 20.0186 155.78 19.4959C155.641 18.9733 155.561 18.4186 155.54 17.8319C155.529 17.5439 155.518 17.2399 155.508 16.9199C155.508 16.5999 155.508 16.2799 155.508 15.9599C155.518 15.6293 155.529 15.3146 155.54 15.0159C155.55 14.4293 155.63 13.8746 155.78 13.3519C155.94 12.8186 156.174 12.3546 156.484 11.9599C156.804 11.5546 157.22 11.2399 157.732 11.0159C158.244 10.7813 158.862 10.6639 159.588 10.6639C160.324 10.6639 160.942 10.7813 161.444 11.0159C161.956 11.2399 162.372 11.5546 162.692 11.9599C163.012 12.3546 163.246 12.8186 163.396 13.3519C163.556 13.8746 163.641 14.4293 163.652 15.0159C163.662 15.3146 163.668 15.6293 163.668 15.9599C163.678 16.2799 163.678 16.5999 163.668 16.9199C163.668 17.2399 163.662 17.5439 163.652 17.8319C163.641 18.4186 163.556 18.9733 163.396 19.4959C163.246 20.0186 163.012 20.4826 162.692 20.8879C162.382 21.2933 161.972 21.6133 161.46 21.8479C160.958 22.0719 160.334 22.1839 159.588 22.1839ZM159.588 20.8239C160.42 20.8239 161.033 20.5519 161.428 20.0079C161.833 19.4533 162.041 18.7013 162.052 17.7519C162.073 17.4426 162.084 17.1439 162.084 16.8559C162.084 16.5573 162.084 16.2639 162.084 15.9759C162.084 15.6773 162.073 15.3839 162.052 15.0959C162.041 14.1679 161.833 13.4266 161.428 12.8719C161.033 12.3066 160.42 12.0239 159.588 12.0239C158.766 12.0239 158.153 12.3066 157.748 12.8719C157.353 13.4266 157.145 14.1679 157.124 15.0959C157.124 15.3839 157.118 15.6773 157.108 15.9759C157.108 16.2639 157.108 16.5573 157.108 16.8559C157.118 17.1439 157.124 17.4426 157.124 17.7519C157.145 18.7013 157.358 19.4533 157.764 20.0079C158.169 20.5519 158.777 20.8239 159.588 20.8239ZM169.744 22.1839C169.008 22.1839 168.384 22.0719 167.872 21.8479C167.371 21.6133 166.96 21.2933 166.64 20.8879C166.32 20.4826 166.085 20.0186 165.936 19.4959C165.797 18.9733 165.717 18.4186 165.696 17.8319C165.685 17.5439 165.675 17.2399 165.664 16.9199C165.664 16.5999 165.664 16.2799 165.664 15.9599C165.675 15.6293 165.685 15.3146 165.696 15.0159C165.707 14.4293 165.787 13.8746 165.936 13.3519C166.096 12.8186 166.331 12.3546 166.64 11.9599C166.96 11.5546 167.376 11.2399 167.888 11.0159C168.4 10.7813 169.019 10.6639 169.744 10.6639C170.48 10.6639 171.099 10.7813 171.6 11.0159C172.112 11.2399 172.528 11.5546 172.848 11.9599C173.168 12.3546 173.403 12.8186 173.552 13.3519C173.712 13.8746 173.797 14.4293 173.808 15.0159C173.819 15.3146 173.824 15.6293 173.824 15.9599C173.835 16.2799 173.835 16.5999 173.824 16.9199C173.824 17.2399 173.819 17.5439 173.808 17.8319C173.797 18.4186 173.712 18.9733 173.552 19.4959C173.403 20.0186 173.168 20.4826 172.848 20.8879C172.539 21.2933 172.128 21.6133 171.616 21.8479C171.115 22.0719 170.491 22.1839 169.744 22.1839ZM169.744 20.8239C170.576 20.8239 171.189 20.5519 171.584 20.0079C171.989 19.4533 172.197 18.7013 172.208 17.7519C172.229 17.4426 172.24 17.1439 172.24 16.8559C172.24 16.5573 172.24 16.2639 172.24 15.9759C172.24 15.6773 172.229 15.3839 172.208 15.0959C172.197 14.1679 171.989 13.4266 171.584 12.8719C171.189 12.3066 170.576 12.0239 169.744 12.0239C168.923 12.0239 168.309 12.3066 167.904 12.8719C167.509 13.4266 167.301 14.1679 167.28 15.0959C167.28 15.3839 167.275 15.6773 167.264 15.9759C167.264 16.2639 167.264 16.5573 167.264 16.8559C167.275 17.1439 167.28 17.4426 167.28 17.7519C167.301 18.7013 167.515 19.4533 167.92 20.0079C168.325 20.5519 168.933 20.8239 169.744 20.8239ZM179.244 22.0239C179.137 22.0239 179.047 21.9919 178.972 21.9279C178.908 21.8533 178.876 21.7626 178.876 21.6559V12.6959L176.22 14.7439C176.135 14.8079 176.044 14.8346 175.948 14.8239C175.852 14.8133 175.772 14.7653 175.708 14.6799L175.292 14.1519C175.228 14.0559 175.201 13.9599 175.212 13.8639C175.233 13.7679 175.287 13.6879 175.372 13.6239L178.86 10.9359C178.935 10.8826 179.004 10.8506 179.068 10.8399C179.132 10.8293 179.201 10.8239 179.276 10.8239H180.092C180.199 10.8239 180.284 10.8613 180.348 10.9359C180.412 10.9999 180.444 11.0853 180.444 11.1919V21.6559C180.444 21.7626 180.412 21.8533 180.348 21.9279C180.284 21.9919 180.199 22.0239 180.092 22.0239H179.244Z" fill="black"/>
<defs>
<filter id="filter0_d_3013_62" x="0" y="0.887939" width="56" height="55.3201" filterUnits="userSpaceOnUse" color-interpolation-filters="sRGB">
<feFlood flood-opacity="0" result="BackgroundImageFix"/>
<feColorMatrix in="SourceAlpha" type="matrix" values="0 0 0 0 0 0 0 0 0 0 0 0 0 0 0 0 0 0 127 0" result="hardAlpha"/>
<feOffset dy="13"/>
<feGaussianBlur stdDeviation="9"/>
<feColorMatrix type="matrix" values="0 0 0 0 0.0658854 0 0 0 0 0.0730469 0 0 0 0 0.1375 0 0 0 0.08 0"/>
<feBlend mode="normal" in2="BackgroundImageFix" result="effect1_dropShadow_3013_62"/>
<feBlend mode="normal" in="SourceGraphic" in2="effect1_dropShadow_3013_62" result="shape"/>
</filter>
</defs>
</svg>
